<?xml version="1.0" encoding="UTF-8" standalone="no"?>
<svg xmlns:ffdec="https://www.free-decompiler.com/flash" xmlns:xlink="http://www.w3.org/1999/xlink" ffdec:objectType="frame" height="207.25px" width="338.85px" xmlns="http://www.w3.org/2000/svg">
  <g transform="matrix(1.0, 0.0, 0.0, 1.0, 177.2, 97.2)">
    <use ffdec:characterId="39" height="207.25" transform="matrix(1.0, 0.0, 0.0, 1.0, 0.0, 0.0)" width="338.85" xlink:href="#shape0"/>
  </g>
  <defs>
    <g id="shape0">
      <path d="M70.3 -87.3 L69.45 -87.15 69.45 -87.05 Q61.5 -84.65 52.95 -80.75 45.75 -77.6 38.15 -73.5 L38.1 -73.3 36.3 -72.25 Q30.35 -69.0 25.1 -65.25 17.5 -60.2 11.35 -55.05 5.55 -50.0 0.85 -44.9 L0.65 -44.55 -2.8 -40.5 Q-5.95 -37.0 -8.0 -33.6 L-8.15 -33.35 -8.2 -33.15 Q-14.6 -22.85 -11.3 -16.25 L-10.6 -15.35 -9.85 -14.25 Q-9.35 -14.15 -8.95 -13.45 -6.65 -11.8 -2.95 -11.05 0.55 -10.1 5.35 -10.3 L7.85 -10.65 11.1 -10.7 12.75 -11.05 13.65 -11.05 14.65 -11.35 Q18.95 -12.0 23.2 -13.15 L23.95 -13.3 24.05 -13.4 24.85 -13.6 29.45 -15.0 29.9 -15.25 Q34.25 -16.55 38.65 -18.35 L39.1 -18.45 45.7 -21.25 45.4 -21.2 Q48.95 -22.75 52.35 -24.55 L52.5 -24.7 Q56.9 -26.75 61.05 -29.3 L63.85 -30.85 64.0 -30.95 Q68.85 -33.8 73.3 -36.95 L77.8 -40.1 77.65 -39.9 78.05 -40.15 86.4 -46.65 86.3 -46.7 86.35 -46.8 86.45 -46.75 86.65 -47.05 91.25 -51.15 91.5 -51.2 91.6 -51.3 91.65 -51.4 99.05 -59.3 100.35 -60.9 101.7 -62.5 101.45 -62.4 102.25 -63.4 103.25 -64.45 104.6 -66.6 107.4 -71.35 107.5 -71.3 108.1 -72.85 108.55 -73.65 108.65 -73.95 108.85 -74.7 108.95 -75.15 Q110.25 -79.2 109.75 -82.35 L109.65 -82.35 109.4 -83.65 108.7 -85.25 Q106.45 -88.8 101.85 -90.25 L99.8 -90.7 Q94.7 -91.55 87.6 -90.7 L86.5 -90.8 83.4 -90.2 83.55 -90.35 Q77.0 -89.4 70.3 -87.3 M-16.65 -28.35 Q-15.35 -32.15 -12.85 -36.25 L-12.6 -36.4 -12.5 -36.65 Q-10.4 -40.25 -7.2 -44.05 L-3.25 -48.55 Q10.6 -63.85 33.6 -76.95 L35.4 -78.0 Q52.4 -87.75 68.1 -92.3 75.55 -94.55 82.7 -95.7 L86.0 -96.2 85.9 -96.2 Q94.7 -97.2 100.8 -96.1 109.9 -94.35 113.4 -88.05 L114.55 -85.8 114.6 -85.7 115.15 -83.25 115.15 -83.35 Q115.8 -80.7 115.1 -77.35 L114.2 -73.55 113.95 -73.0 113.45 -71.85 Q113.45 -71.2 113.05 -70.4 L112.35 -69.0 111.35 -67.05 110.5 -65.6 109.15 -63.45 105.9 -59.0 105.85 -58.8 105.15 -58.05 104.8 -57.55 104.55 -57.4 103.35 -55.9 103.25 -55.85 102.55 -55.0 99.25 -51.15 95.25 -47.45 95.2 -47.15 95.05 -47.1 94.5 -46.65 89.95 -42.5 89.7 -42.35 81.05 -35.55 81.0 -35.45 80.9 -35.4 Q78.75 -33.9 76.35 -32.5 71.9 -29.1 66.7 -26.2 L66.55 -26.1 63.9 -24.6 61.9 -23.5 55.35 -19.9 55.05 -19.85 48.25 -16.35 47.95 -16.2 47.8 -16.25 41.6 -13.45 41.2 -13.45 41.15 -13.35 32.4 -10.1 31.5 -9.75 31.4 -9.7 27.2 -8.5 26.35 -8.3 25.5 -8.2 24.55 -7.9 Q22.05 -7.05 19.3 -6.65 L17.15 -6.15 15.6 -5.95 14.9 -5.9 Q14.65 -5.9 14.5 -6.05 14.05 -5.65 13.45 -5.6 L5.4 -4.85 3.35 -4.8 -4.55 -5.65 -6.45 -5.25 -37.45 2.0 -46.85 7.4 -139.2 60.5 -141.35 61.75 Q-144.15 58.65 -143.15 55.25 L-140.55 53.65 -50.15 1.85 -40.8 -3.65 -16.65 -28.35 Q-19.75 -19.75 -15.85 -13.55 -14.7 -11.45 -13.1 -9.9 L-12.6 -9.55 Q-9.55 -6.9 -4.55 -5.65 -9.55 -6.9 -12.6 -9.55 L-13.1 -9.9 Q-14.7 -11.45 -15.85 -13.55 -19.75 -19.75 -16.65 -28.35" fill="#a8a8a8" fill-rule="evenodd" stroke="none"/>
      <path d="M-139.65 63.4 L-172.7 82.2 Q-179.7 75.05 -173.65 70.9 L-141.3 52.2 Q-142.65 53.9 -143.15 55.25 -144.15 58.65 -141.35 61.75 L-139.65 63.4" fill="#000000" fill-rule="evenodd" stroke="none"/>
      <path d="M70.3 -87.3 L69.45 -87.15 69.45 -87.05 Q61.5 -84.65 52.95 -80.75 45.75 -77.6 38.15 -73.5 L38.1 -73.3 36.3 -72.25 Q30.35 -69.0 25.1 -65.25 17.5 -60.2 11.35 -55.05 5.55 -50.0 0.85 -44.9 L0.65 -44.55 -2.8 -40.5 Q-5.95 -37.0 -8.0 -33.6 L-8.15 -33.35 -8.2 -33.15 Q-14.6 -22.85 -11.3 -16.25 L-10.6 -15.35 -9.85 -14.25 Q-9.35 -14.15 -8.95 -13.45 -6.65 -11.8 -2.95 -11.05 0.55 -10.1 5.35 -10.3 L7.85 -10.65 11.1 -10.7 12.75 -11.05 13.65 -11.05 14.65 -11.35 Q18.95 -12.0 23.2 -13.15 L23.95 -13.3 24.05 -13.4 24.85 -13.6 29.45 -15.0 29.9 -15.25 Q34.25 -16.55 38.65 -18.35 L39.1 -18.45 45.7 -21.25 45.4 -21.2 Q48.95 -22.75 52.35 -24.55 L52.5 -24.7 Q56.9 -26.75 61.05 -29.3 L63.85 -30.85 64.0 -30.95 Q68.85 -33.8 73.3 -36.95 L77.8 -40.1 77.65 -39.9 78.05 -40.15 86.4 -46.65 86.3 -46.7 86.35 -46.8 86.45 -46.75 86.65 -47.05 91.25 -51.15 91.5 -51.2 91.6 -51.3 91.65 -51.4 99.05 -59.3 100.35 -60.9 101.7 -62.5 101.45 -62.4 102.25 -63.4 103.25 -64.45 104.6 -66.6 107.4 -71.35 107.5 -71.3 108.1 -72.85 108.55 -73.65 108.65 -73.95 108.85 -74.7 108.95 -75.15 Q110.25 -79.2 109.75 -82.35 L109.65 -82.35 109.4 -83.65 108.7 -85.25 Q106.45 -88.8 101.85 -90.25 L99.8 -90.7 Q94.7 -91.55 87.6 -90.7 L86.5 -90.8 83.4 -90.2 83.55 -90.35 Q77.0 -89.4 70.3 -87.3 M-16.65 -28.35 Q-15.35 -32.15 -12.85 -36.25 L-12.6 -36.4 -12.5 -36.65 Q-10.4 -40.25 -7.2 -44.05 L-3.25 -48.55 Q10.6 -63.85 33.6 -76.95 L35.4 -78.0 Q52.4 -87.75 68.1 -92.3 75.55 -94.55 82.7 -95.7 L86.0 -96.2 85.9 -96.2 Q94.7 -97.2 100.8 -96.1 109.9 -94.35 113.4 -88.05 L114.55 -85.8 114.6 -85.7 115.15 -83.25 115.15 -83.35 Q115.8 -80.7 115.1 -77.35 L114.2 -73.55 113.95 -73.0 113.45 -71.85 Q113.45 -71.2 113.05 -70.4 L112.35 -69.0 111.35 -67.05 110.5 -65.6 109.15 -63.45 105.9 -59.0 105.85 -58.8 105.15 -58.05 104.8 -57.55 104.55 -57.4 103.35 -55.9 103.25 -55.85 102.55 -55.0 99.25 -51.15 95.25 -47.45 95.2 -47.15 95.05 -47.1 94.5 -46.65 89.95 -42.5 89.7 -42.35 81.05 -35.55 81.0 -35.45 80.9 -35.4 Q78.75 -33.9 76.35 -32.5 71.9 -29.1 66.7 -26.2 L66.55 -26.1 63.9 -24.6 61.9 -23.5 55.35 -19.9 55.05 -19.85 48.25 -16.35 47.95 -16.2 47.8 -16.25 41.6 -13.45 41.2 -13.45 41.15 -13.35 32.4 -10.1 31.5 -9.75 31.4 -9.7 27.2 -8.5 26.35 -8.3 25.5 -8.2 24.55 -7.9 Q22.05 -7.05 19.3 -6.65 L17.15 -6.15 15.6 -5.95 14.9 -5.9 Q14.65 -5.9 14.5 -6.05 14.05 -5.65 13.45 -5.6 L5.4 -4.85 3.35 -4.8 -4.55 -5.65 Q-9.55 -6.9 -12.6 -9.55 L-13.1 -9.9 Q-14.7 -11.45 -15.85 -13.55 -19.75 -19.75 -16.65 -28.35" fill="none" stroke="#333333" stroke-linecap="round" stroke-linejoin="round" stroke-width="1.0"/>
      <path d="M52.95 -80.75 L57.3 -74.4 Q66.0 -78.45 74.35 -80.6 L70.3 -87.3 M42.2 -67.05 L39.1 -65.25 Q34.0 -62.25 29.3 -59.25 32.95 -54.5 36.0 -49.7 L44.4 -54.8 48.4 -57.05 42.2 -67.05 38.15 -73.5 M63.5 -64.55 L69.6 -54.55 Q79.4 -59.6 86.0 -61.35 L84.35 -64.15 80.45 -70.45 Q72.25 -68.2 63.5 -64.55 L57.3 -74.4 Q49.8 -71.15 42.2 -67.05 M63.5 -64.55 Q56.25 -61.35 48.4 -57.05 M54.55 -46.75 Q62.85 -51.4 69.6 -54.55 L76.55 -42.65 86.35 -46.8 M80.45 -70.45 Q86.7 -72.35 92.75 -73.3 L96.85 -73.85 91.2 -84.2 87.35 -83.65 Q80.9 -82.65 74.35 -80.6 77.1 -76.5 80.45 -70.45 M115.1 -77.35 L118.55 -70.25 120.3 -66.95 128.55 -49.25 132.7 -39.95 135.2 -33.8 137.0 -29.45 141.4 -18.6 142.45 -15.8 146.55 -3.85 147.2 -2.25 148.45 1.5 151.75 12.45 155.2 26.0 155.7 29.1 Q157.55 38.0 158.55 46.15 L160.65 46.0 M25.1 -65.25 L29.3 -59.25 Q21.9 -54.5 15.8 -49.4 L22.9 -40.35 Q28.9 -45.1 36.0 -49.7 L42.85 -39.65 49.35 -43.6 54.55 -46.75 61.5 -35.25 Q62.45 -35.9 63.75 -36.45 70.15 -39.85 76.55 -42.65 L78.05 -40.15 M22.9 -40.35 L29.65 -31.15 42.85 -39.65 49.75 -28.8 61.5 -35.25 64.0 -30.95 M15.8 -49.4 Q9.75 -44.55 4.8 -39.3 L11.6 -30.6 Q16.8 -35.5 22.9 -40.35 M-8.2 -33.15 L-4.15 -28.65 -0.85 -32.9 4.8 -39.3 0.65 -44.55 M18.0 -22.1 L11.6 -30.6 Q7.8 -26.65 4.55 -22.55 L3.05 -20.75 9.7 -12.7 Q11.8 -15.65 14.2 -18.15 L18.0 -22.1 Q22.4 -26.1 29.65 -31.15 L37.0 -20.45 Q43.3 -24.75 49.75 -28.8 L52.35 -24.55 M3.35 -4.8 L9.8 2.4 16.3 -4.05 14.9 -5.9 M17.15 -6.15 L17.85 -5.35 19.3 -6.65 M16.3 -4.05 Q19.45 -0.05 22.2 4.25 L23.45 3.85 25.7 3.45 17.85 -5.35 16.3 -4.05 M11.1 -10.7 L9.7 -12.7 7.85 -10.65 M38.65 -18.35 L37.0 -20.45 29.45 -15.0 M27.2 -8.5 L33.2 0.6 37.6 -3.5 32.4 -10.1 M33.2 0.6 Q33.4 1.2 34.05 1.7 L40.1 -0.1 37.6 -3.5 44.7 -9.1 41.6 -13.45 M24.05 -13.4 L18.0 -22.1 M76.35 -32.5 L78.4 -29.45 82.9 -31.55 80.9 -35.4 M55.35 -19.9 L56.7 -17.4 63.15 -21.45 61.9 -23.5 M44.7 -9.1 L50.4 -13.4 48.25 -16.35 M44.7 -9.1 L48.45 -3.1 55.0 -6.0 50.4 -13.4 56.7 -17.4 61.65 -9.0 68.7 -12.9 63.15 -21.45 64.1 -21.9 67.8 -23.95 66.55 -26.1 M48.45 -3.1 L52.15 3.05 Q55.0 0.85 58.35 -1.1 L55.0 -6.0 Q58.35 -7.35 61.65 -9.0 L64.05 -4.7 71.1 -9.1 68.7 -12.9 71.4 -14.35 72.65 -15.25 67.8 -23.95 Q73.25 -26.95 78.4 -29.45 L83.0 -22.1 Q84.85 -23.4 86.65 -24.5 L82.9 -31.55 Q88.6 -34.0 94.05 -35.75 L89.7 -42.35 M71.1 -9.1 Q74.1 -4.55 76.5 -0.25 L79.75 -2.1 75.0 -11.2 71.65 -9.25 71.1 -9.1 M75.0 -11.2 Q80.7 -14.4 86.15 -16.9 L83.0 -22.1 72.65 -15.25 75.0 -11.2 M58.35 -1.1 L63.05 6.65 Q65.75 5.2 68.85 3.9 L64.05 -4.7 Q61.0 -3.1 58.35 -1.1 M15.8 -49.4 L11.35 -55.05 M48.45 -3.1 L40.1 -0.1 45.75 7.7 Q48.8 5.3 52.15 3.05 L56.05 9.65 63.05 6.65 64.8 9.45 70.05 6.15 68.85 3.9 76.5 -0.25 77.55 2.0 Q79.25 0.95 81.05 0.15 L79.75 -2.1 85.2 -5.2 90.7 -8.6 86.15 -16.9 89.85 -18.65 86.65 -24.5 96.45 -31.85 94.7 -34.85 Q94.55 -35.4 94.05 -35.75 L99.45 -37.45 94.5 -46.65 M109.65 -82.35 Q107.6 -83.35 104.85 -83.95 L107.85 -77.8 108.95 -75.15 M87.6 -90.7 L91.2 -84.2 Q99.35 -85.1 104.85 -83.95 L101.85 -90.25 M86.0 -61.35 L89.3 -62.2 101.75 -64.45 97.9 -72.05 Q97.3 -72.9 96.85 -73.85 102.75 -74.4 108.65 -73.95 M86.0 -61.35 L91.65 -51.4 M120.3 -66.95 L118.65 -66.7 Q118.35 -63.05 116.2 -57.15 L117.1 -55.4 124.15 -56.25 M111.35 -67.05 L112.0 -65.75 118.65 -66.7 Q118.8 -68.95 118.55 -70.25 M103.25 -64.45 L101.75 -64.45 102.25 -63.4 M102.55 -55.0 L103.85 -52.65 107.3 -53.55 Q106.15 -55.7 105.15 -58.05 M115.55 -55.15 L107.3 -53.55 110.7 -46.3 Q112.6 -48.75 113.75 -50.95 L115.55 -55.15 Q115.8 -56.2 116.2 -57.15 L112.0 -65.75 110.5 -65.6 M115.55 -55.15 L117.1 -55.4 119.95 -49.4 123.75 -41.2 124.35 -41.15 Q126.65 -45.2 128.55 -49.25 M99.25 -51.15 L103.85 -52.65 108.5 -43.35 Q109.85 -44.85 110.7 -46.3 L113.4 -40.45 123.75 -41.2 124.1 -40.75 124.35 -41.15 Q129.0 -41.15 132.7 -39.95 M112.25 -40.3 L110.1 -39.85 Q112.85 -34.45 115.2 -29.05 L117.45 -31.7 Q115.7 -36.1 113.4 -40.45 L112.25 -40.3 M108.65 -42.95 L108.5 -43.35 103.95 -38.65 110.1 -39.85 108.65 -42.95 M113.55 -27.3 L115.9 -27.85 115.2 -29.05 113.55 -27.3 107.3 -21.05 111.05 -12.75 120.1 -14.85 121.0 -15.05 121.25 -15.35 120.5 -17.4 115.9 -27.85 116.7 -27.95 119.0 -28.45 117.45 -31.7 Q121.1 -36.0 124.1 -40.75 L128.85 -29.55 133.8 -29.65 Q134.8 -31.9 135.2 -33.8 M113.55 -27.3 L105.5 -24.8 107.3 -21.05 103.95 -18.3 Q105.8 -14.95 107.25 -11.45 L111.05 -12.75 113.0 -8.3 Q114.65 -9.6 116.3 -11.05 L121.0 -15.05 121.25 -15.2 121.25 -15.35 123.65 -17.45 119.0 -28.45 128.85 -29.55 130.95 -25.05 Q132.75 -27.5 133.8 -29.65 L137.0 -29.45 M96.45 -31.85 L101.3 -23.55 105.5 -24.8 100.45 -35.25 96.45 -31.85 M100.45 -35.25 L99.45 -37.45 103.95 -38.65 100.45 -35.25 M103.95 -18.3 Q99.4 -14.35 93.9 -10.85 L95.85 -7.0 Q101.8 -9.65 107.25 -11.45 L109.9 -6.0 113.0 -8.3 117.3 2.15 Q121.95 0.45 126.3 -0.45 L127.0 -0.8 121.25 -15.2 124.4 -15.75 123.65 -17.45 Q128.2 -21.7 130.95 -25.05 132.55 -20.85 134.3 -16.75 L140.65 -16.15 141.4 -18.6 M93.9 -10.85 L90.7 -8.6 92.3 -5.45 95.85 -7.0 99.75 1.3 109.9 -6.0 113.9 3.4 117.3 2.15 118.75 5.6 Q121.2 3.65 123.65 1.85 L126.3 -0.45 127.0 -0.6 127.0 -0.8 129.45 -2.9 124.4 -15.75 134.3 -16.75 136.8 -10.3 Q139.95 -13.7 140.65 -16.15 L142.45 -15.8 M93.9 -10.85 L89.85 -18.65 Q95.65 -21.4 101.3 -23.55 L103.95 -18.3 M127.0 -0.6 L128.6 -0.95 129.9 -1.2 Q129.85 -2.15 129.45 -2.9 134.0 -7.05 136.8 -10.3 L139.6 -2.45 Q143.4 -2.7 146.45 -2.45 L146.55 -3.85 M129.9 -1.2 Q132.5 5.65 134.8 12.75 139.5 8.45 142.25 5.0 141.2 1.3 139.6 -2.45 L129.9 -1.2 M146.45 -2.45 L147.2 -2.25 M151.75 12.45 L151.65 13.65 Q151.35 16.65 147.05 21.1 L148.5 26.8 Q152.25 25.75 155.2 26.0 M151.65 13.65 L144.9 13.1 147.05 21.1 Q144.3 24.2 139.65 28.0 L140.1 29.55 Q144.8 27.75 148.5 26.8 L150.55 37.7 Q154.9 33.0 155.7 29.1 M146.45 -2.45 Q145.8 0.8 142.25 5.0 L144.3 11.0 144.9 13.1 135.3 13.9 139.65 28.0 137.75 29.6 137.9 30.6 140.1 29.55 Q142.35 36.65 144.15 43.9 147.95 40.65 150.55 37.7 151.55 43.1 152.15 48.4 156.0 46.8 158.55 46.15 L158.95 48.95 158.85 49.35 Q159.85 58.2 159.4 66.05 156.4 68.65 152.8 70.9 L150.35 72.9 150.15 72.9 144.9 76.2 136.1 81.9 130.4 84.95 130.75 86.65 M124.3 20.9 L129.6 16.95 132.65 14.6 132.5 14.55 130.6 14.85 122.95 16.85 124.3 20.9 129.1 34.7 Q131.85 33.5 134.1 32.3 L134.4 32.25 136.75 30.25 137.75 29.6 133.05 15.95 132.65 14.6 132.7 14.5 132.5 14.55 127.0 -0.6 M135.3 13.9 L132.7 14.5 134.8 12.75 135.3 13.9 M134.4 32.25 Q136.2 31.25 137.9 30.6 140.55 38.45 142.0 45.45 L144.15 43.9 145.9 50.95 Q149.4 49.35 152.15 48.4 L152.85 57.25 Q156.4 54.2 158.25 50.7 L158.85 49.35 M129.1 34.7 L125.9 36.35 126.1 38.15 129.4 35.9 129.1 34.7 M122.55 26.7 L121.4 23.1 111.9 29.4 Q114.4 35.1 116.5 40.75 121.35 38.3 125.9 36.35 L122.55 26.7 M129.4 35.9 L134.4 32.25 M142.0 45.45 L141.5 45.65 Q138.0 48.5 133.85 50.85 L135.35 56.0 Q138.5 54.4 141.2 53.1 L143.15 52.15 142.75 48.35 Q142.2 46.9 142.0 45.45 M113.9 3.4 L115.7 8.0 118.75 5.6 122.95 16.85 119.45 17.85 121.4 23.1 124.3 20.9 M105.75 14.55 L102.65 16.7 105.4 23.5 Q107.25 22.6 108.9 22.0 L105.75 14.55 102.85 7.95 99.5 9.45 102.65 16.7 92.1 22.55 94.9 28.25 Q100.3 25.65 105.4 23.5 L108.65 31.35 Q110.25 30.25 111.9 29.4 L108.9 22.0 Q114.45 19.5 119.45 17.85 L115.7 8.0 Q110.8 11.55 105.75 14.55 M99.75 1.3 L102.85 7.95 Q108.45 5.35 113.9 3.4 M99.75 1.3 Q98.1 2.4 96.65 3.45 L99.5 9.45 Q94.2 11.9 88.45 15.0 L92.1 22.55 89.5 23.85 92.25 29.7 94.9 28.25 98.75 36.9 99.55 36.5 108.65 31.35 109.8 34.3 112.85 42.5 116.5 40.75 117.65 43.7 126.1 38.15 Q128.65 45.85 130.45 52.85 L133.85 50.85 129.4 35.9 M77.55 2.0 L83.05 11.2 83.1 11.1 85.85 9.75 81.05 0.15 Q86.75 -2.95 92.3 -5.45 L96.65 3.45 85.85 9.75 88.45 15.0 Q87.25 15.6 85.9 16.45 L89.35 23.25 89.5 23.85 81.15 28.25 83.9 34.2 Q84.55 33.7 85.2 33.55 88.7 31.4 92.25 29.7 L95.9 38.45 Q97.35 37.6 98.75 36.9 L103.3 47.15 Q108.3 44.6 112.85 42.5 L114.05 45.95 117.65 43.7 122.3 57.35 130.45 52.85 131.85 57.8 135.35 56.0 138.15 67.0 144.55 63.1 Q144.3 57.8 143.15 52.15 L145.9 50.95 148.05 61.05 Q150.75 59.2 152.85 57.25 153.2 64.15 152.8 70.9 M85.9 16.45 L83.3 18.0 77.75 21.25 81.15 28.25 Q78.7 29.3 76.7 30.35 L78.3 33.25 79.95 36.6 Q81.8 35.25 83.9 34.2 L87.65 42.6 95.9 38.45 100.05 48.65 Q101.5 47.85 103.3 47.15 L104.8 50.95 Q106.1 50.2 107.55 49.55 L114.05 45.95 118.65 59.1 Q120.55 58.0 122.3 57.35 L123.75 61.7 131.85 57.8 Q133.45 63.8 134.3 69.0 L138.15 67.0 140.8 77.95 M85.9 16.45 L83.05 11.2 Q78.7 13.6 74.9 15.4 L77.75 21.25 73.2 23.95 76.7 30.35 Q72.85 32.05 70.3 33.4 L69.25 33.7 72.9 40.8 Q76.35 38.55 79.95 36.6 L83.85 44.55 87.65 42.6 91.7 52.6 Q92.65 52.05 93.9 51.7 97.05 50.0 100.05 48.65 L101.5 52.7 104.8 50.95 109.45 63.25 116.7 59.95 118.65 59.1 120.15 63.6 123.75 61.7 126.9 72.85 134.3 69.0 Q135.7 76.25 136.1 81.9 M107.65 69.85 L111.45 80.55 112.45 80.15 Q113.8 79.35 115.05 78.9 L111.35 68.0 107.65 69.85 105.8 64.9 97.8 68.45 99.8 73.9 Q100.65 73.2 101.55 72.85 104.55 71.15 107.65 69.85 M101.5 52.7 L105.8 64.9 109.45 63.25 111.35 68.0 120.15 63.6 Q122.0 69.55 123.2 74.8 L126.9 72.85 Q128.9 79.05 130.4 84.95 L126.05 87.55 118.8 91.25 115.75 92.85 Q114.75 93.3 113.9 93.8 110.35 95.15 106.8 96.85 L104.4 97.9 Q101.35 99.0 98.3 100.25 L92.8 102.2 81.95 105.65 77.45 107.0 67.8 109.05 62.0 93.75 61.75 93.4 61.7 92.85 Q58.1 84.8 54.1 76.9 L53.55 76.1 Q50.35 69.65 46.4 63.15 L46.3 62.95 45.65 61.65 44.75 60.4 40.05 53.1 39.95 52.8 37.35 48.95 35.2 45.55 31.05 39.6 29.3 37.3 24.5 30.65 19.2 24.05 16.65 21.1 Q12.65 16.05 8.25 11.2 L8.0 10.95 Q3.9 5.8 -0.9 0.8 L-1.95 -0.5 -2.3 -0.75 -6.45 -5.25 M3.35 -4.8 Q1.25 -2.3 -0.75 0.7 2.6 3.35 7.7 4.2 L9.8 2.4 11.85 4.65 22.2 4.25 25.45 8.65 27.85 6.05 Q26.65 5.0 25.7 3.45 L31.35 2.35 33.2 0.6 M91.7 52.6 L93.4 56.6 101.5 52.7 M81.1 57.85 L82.45 61.15 84.9 60.2 89.7 58.35 88.15 54.4 Q84.3 56.05 81.1 57.85 L76.45 47.9 71.9 49.9 Q74.3 54.65 76.7 60.15 78.7 59.05 81.1 57.85 M97.8 68.45 L94.2 70.0 96.4 75.45 Q98.05 74.65 99.8 73.9 L103.1 84.45 111.45 80.55 115.75 92.85 M94.2 70.0 L93.7 70.2 87.55 72.75 90.1 78.7 96.4 75.45 100.25 85.6 103.1 84.45 Q105.2 90.55 106.8 96.85 M82.45 61.15 L87.55 72.75 Q85.35 73.7 82.75 74.45 L85.35 81.3 Q87.5 80.05 90.1 78.7 L93.9 88.25 100.25 85.6 Q102.1 91.55 104.4 97.9 M83.85 44.55 L88.15 54.4 Q89.75 53.4 91.7 52.6 M97.8 68.45 L93.4 56.6 Q91.45 57.4 89.7 58.35 91.95 63.8 94.2 70.0 M92.8 102.2 Q90.85 95.8 88.55 90.15 L82.8 91.85 87.85 103.0 M98.3 100.25 L93.9 88.25 88.55 90.15 85.35 81.3 79.35 84.8 82.8 91.85 78.15 92.9 77.55 93.05 81.95 105.65 M118.8 91.25 Q117.2 84.95 115.05 78.9 119.4 76.65 123.2 74.8 L126.05 87.55 M144.55 63.1 L145.6 62.7 148.05 61.05 150.35 72.9 M144.9 76.2 Q145.15 69.85 144.55 63.1 M70.05 6.15 L74.55 3.65 Q76.15 2.6 77.55 2.0 M62.75 21.25 L66.55 28.2 Q69.75 26.1 73.2 23.95 L69.8 17.9 62.75 21.25 58.45 13.6 52.9 17.7 56.95 23.8 60.0 22.45 62.75 21.25 M69.8 17.9 L64.8 9.45 58.45 13.6 56.05 9.65 49.15 12.35 52.9 17.7 46.5 22.7 48.85 26.75 56.95 23.8 61.8 31.7 66.55 28.2 69.25 33.7 64.3 35.8 68.6 43.65 72.9 40.8 76.45 47.9 Q76.85 47.7 77.45 47.6 79.95 46.25 83.85 44.55 M69.8 17.9 L74.9 15.4 70.05 6.15 M45.75 7.7 L49.15 12.35 41.75 14.7 Q44.25 18.55 46.5 22.7 44.65 24.15 43.2 25.95 L44.65 28.05 48.85 26.75 54.9 37.4 61.8 31.7 64.3 35.8 Q60.0 37.45 55.65 38.7 L61.1 49.05 68.6 43.65 68.95 44.3 71.9 49.9 Q67.55 51.7 63.15 52.9 L69.05 64.3 Q72.5 62.35 76.7 60.15 L77.85 62.65 82.45 61.15 M43.2 25.95 L39.6 29.05 41.65 28.7 Q43.25 28.1 44.65 28.05 48.9 33.85 52.4 39.45 53.6 38.35 54.9 37.4 L55.65 38.7 52.55 39.7 56.95 46.8 58.95 50.65 61.1 49.05 63.15 52.9 60.45 53.55 Q63.55 59.35 66.4 65.85 67.75 65.05 69.05 64.3 L69.55 65.1 77.85 62.65 82.75 74.45 75.55 77.05 75.45 77.05 Q77.25 80.95 79.35 84.8 77.05 86.0 75.35 87.3 L77.55 93.05 71.85 93.95 77.45 107.0 M45.55 41.25 L40.8 41.9 44.45 47.45 44.85 46.85 47.4 44.25 45.55 41.25 38.9 29.9 36.45 32.65 35.25 34.05 Q38.35 37.95 40.8 41.9 L37.7 41.65 Q34.2 41.4 31.45 39.1 L31.05 39.6 M44.45 47.45 L45.05 48.2 49.05 55.05 53.1 55.1 47.4 44.25 Q49.3 42.05 51.95 39.75 L45.55 41.25 M51.95 39.75 L52.15 39.7 52.55 39.7 52.4 39.45 51.95 39.75 M31.35 2.35 L34.05 1.7 40.3 12.4 45.75 7.7 M23.95 10.4 Q22.1 12.75 20.55 15.2 L22.8 17.85 30.95 17.1 Q28.4 12.75 25.45 8.65 L23.95 10.4 M36.3 16.2 L35.95 16.25 36.05 16.35 36.3 16.2 40.3 12.4 41.75 14.7 36.3 16.2 M22.8 17.85 L28.45 25.15 32.8 19.95 31.05 17.2 30.95 17.1 31.05 17.1 31.05 17.2 35.95 16.25 27.85 6.05 31.35 2.35 M32.8 19.95 L32.95 19.85 36.05 16.35 Q39.8 21.1 43.2 25.95 M8.25 11.2 Q12.05 15.2 16.25 16.55 L19.0 17.5 Q19.7 16.2 20.55 15.2 L11.85 4.65 7.7 4.2 5.55 6.45 M16.65 21.1 L19.0 17.5 22.8 17.85 M28.45 25.15 Q30.55 27.45 32.1 29.75 L38.65 29.25 32.8 19.95 M39.6 29.05 L38.9 29.9 38.65 29.25 39.6 29.05 M29.3 37.3 L31.45 39.1 Q33.0 36.75 35.25 34.05 L32.1 29.75 27.6 29.15 26.0 28.75 24.5 30.65 M28.45 25.15 L26.0 28.75 Q22.1 27.2 19.2 24.05 M60.45 53.55 L58.9 54.15 54.15 55.0 53.45 55.55 59.4 67.25 65.35 66.4 66.1 66.1 66.4 65.85 66.45 66.0 69.55 65.1 75.45 77.05 71.7 78.2 75.35 87.3 Q72.2 89.2 70.35 90.7 L71.85 93.95 67.45 94.1 71.95 106.75 M66.1 66.1 Q62.55 68.1 60.75 69.9 L65.3 79.35 71.7 78.2 Q69.15 71.8 66.45 66.0 L66.1 66.1 M53.45 55.55 L50.85 58.15 55.75 67.45 59.4 67.25 60.75 69.9 58.0 72.25 61.4 79.3 65.3 79.35 70.35 90.7 70.0 91.05 67.25 93.3 67.45 94.1 Q65.95 94.3 64.85 94.1 L62.65 93.9 62.0 93.75 M54.15 55.0 L53.1 55.1 53.45 55.55 M54.15 55.0 L58.95 50.65 60.45 53.55 M45.65 61.65 L46.65 62.6 46.95 62.35 50.85 58.15 49.05 55.05 Q47.1 54.95 45.25 54.25 43.25 53.7 40.95 51.65 L39.95 52.8 M53.55 76.1 L58.0 72.25 55.75 67.45 Q53.5 67.2 51.7 66.35 49.45 65.6 46.65 62.6 L46.3 62.95 M54.1 76.9 Q56.15 78.0 60.15 79.0 L61.4 79.3 67.25 93.3 Q65.9 94.1 64.85 94.1 M62.65 93.9 L61.7 92.85 M37.35 48.95 Q39.4 50.3 40.95 51.65 L44.45 47.45 M-10.6 -15.35 Q-9.3 -21.4 -4.15 -28.65 L3.05 -20.75 Q-0.85 -15.6 -2.95 -11.05 M-0.9 0.8 L-0.75 0.7 -1.95 -0.5" fill="none" stroke="#254a00" stroke-linecap="round" stroke-linejoin="round" stroke-width="2.0"/>
      <path d="M48.4 -57.05 L54.55 -46.75 M114.2 -73.55 L116.35 -73.4 M-141.3 52.2 L-140.55 53.65 M-143.15 55.25 Q-142.65 53.9 -141.3 52.2" fill="none" stroke="#254a00" stroke-linecap="round" stroke-linejoin="round" stroke-width="1.5"/>
      <path d="M-6.45 -5.25 L-37.45 2.0 -46.85 7.4 -139.2 60.5 Q-138.25 62.35 -139.65 63.4 L-172.7 82.2 Q-179.7 75.05 -173.65 70.9 L-141.3 52.2 M-140.55 53.65 L-50.15 1.85 -40.8 -3.65 -16.65 -28.35 M-6.45 -5.25 L-4.55 -5.65 M-143.15 55.25 L-140.55 53.65 M-139.2 60.5 L-141.35 61.75 -139.65 63.4 M-141.35 61.75 Q-144.15 58.65 -143.15 55.25" fill="none" stroke="#333333" stroke-linecap="round" stroke-linejoin="round" stroke-width="1.5"/>
    </g>
    <g id="font_Jotter_Primary_P0">
      <path d="M104.3 -685.9 L104.3 -371.65 Q341.65 -363.4 362.95 -525.95 342.95 -690.25 104.3 -685.9 M61.3 -771.55 Q249.05 -793.7 397.75 -664.2 440.3 -602.45 445.95 -533.35 436.85 -284.3 110.85 -286.45 L106.05 -35.2 Q95.2 0.45 62.15 -1.3 28.7 -3.05 25.2 -40.0 L25.2 -739.4 Q36.95 -762.85 61.3 -771.55" fill-rule="evenodd" stroke="none"/>
    </g>
    <g id="font_Jotter_Primary_r0">
      <path d="M232.55 -464.65 Q356.0 -459.9 394.25 -396.0 405.55 -363.4 386.85 -343.85 368.15 -323.85 332.55 -326.0 302.55 -370.8 244.3 -368.6 158.2 -362.95 146.9 -283.85 L146.9 -32.15 Q133.0 -0.85 97.35 0.0 62.15 1.3 49.1 -30.0 L52.6 -284.3 Q50.4 -324.7 45.65 -344.25 41.3 -363.8 27.8 -396.0 28.25 -396.0 26.1 -397.3 22.15 -411.2 22.6 -429.45 L29.55 -449.0 Q101.7 -477.7 114.3 -414.25 141.25 -452.05 232.55 -464.65" fill-rule="evenodd" stroke="none"/>
    </g>
    <g id="font_Jotter_Primary_i0">
      <path d="M83.9 -467.7 Q121.25 -468.15 130.4 -436.4 L127.8 -100.85 Q126.05 -99.95 128.25 -99.1 129.95 -98.25 135.6 -105.65 L152.55 -113.0 Q193.0 -117.8 199.5 -84.35 206.05 -50.85 181.25 -30.45 L167.35 -20.0 Q145.6 -1.75 101.7 -0.45 43.05 9.55 37.8 -45.65 L39.55 -436.85 Q46.5 -466.85 83.9 -467.7 M78.7 -655.9 Q159.1 -651.15 134.75 -561.6 70.4 -522.5 34.35 -574.65 22.15 -640.7 78.7 -655.9" fill-rule="evenodd" stroke="none"/>
    </g>
    <g id="font_Jotter_Primary_c0">
      <path d="M240.8 -465.95 Q329.05 -475.1 403.8 -419.45 419.45 -388.15 399.05 -360.35 378.6 -332.95 341.2 -350.8 284.7 -392.1 196.9 -353.8 125.6 -320.8 124.3 -212.1 125.6 -65.65 324.25 -112.15 L369.9 -139.1 Q406.4 -150.85 424.7 -127.8 442.95 -104.3 432.95 -72.6 369.9 6.1 239.5 0.0 109.55 6.1 50.4 -110.4 6.95 -212.55 50.0 -326.85 99.55 -443.8 240.8 -465.95" fill-rule="evenodd" stroke="none"/>
    </g>
    <g id="font_Jotter_Primary_e0">
      <path d="M227.35 -382.5 Q124.3 -361.65 113.45 -266.9 219.1 -260.8 279.05 -280.35 339.05 -299.9 328.6 -342.1 317.75 -384.25 227.35 -382.5 M239.95 -472.05 Q400.75 -461.2 418.6 -356.45 436.4 -251.7 341.65 -209.1 246.9 -166.05 118.25 -178.65 122.6 -111.3 221.25 -102.15 323.4 -89.1 374.7 -141.25 420.75 -152.55 438.6 -122.6 456.4 -93.0 440.75 -60.4 350.35 10.85 197.8 -5.2 30.45 -20.45 14.8 -212.1 18.25 -449.9 239.95 -472.05" fill-rule="evenodd" stroke="none"/>
    </g>
    <g id="font_Jotter_Primary_:0">
      <path d="M39.55 -8.7 Q88.25 16.5 125.6 -13.45 158.2 -63.05 123.0 -101.7 81.3 -132.6 39.55 -103.0 3.9 -53.05 39.55 -8.7 M35.2 -307.3 Q88.25 -277.3 129.95 -312.1 153.85 -357.3 123.45 -395.55 81.3 -426.4 39.55 -396.85 3.9 -356.85 35.2 -307.3" fill-rule="evenodd" stroke="none"/>
    </g>
  </defs>
</svg>
