<?xml version="1.0" encoding="UTF-8" standalone="no"?>
<svg xmlns:ffdec="https://www.free-decompiler.com/flash" xmlns:xlink="http://www.w3.org/1999/xlink" ffdec:objectType="frame" height="79.0px" width="64.5px" xmlns="http://www.w3.org/2000/svg">
  <g transform="matrix(1.0, 0.0, 0.0, 1.0, 10.0, 8.8)">
    <use ffdec:characterId="30" height="71.5" transform="matrix(1.0, 0.0, 0.0, 1.0, -6.0, -8.75)" width="55.8" xlink:href="#sprite0"/>
    <use ffdec:characterId="38" height="79.0" id="body" transform="matrix(1.0, 0.0, 0.0, 1.0, -3.0, -5.65)" width="64.5" xlink:href="#sprite1"/>
    <use ffdec:characterId="39" height="27.7" transform="matrix(1.0, 0.0, 0.0, 1.0, 0.0, 0.0)" width="40.15" xlink:href="#shape2"/>
  </g>
  <defs>
    <g id="sprite0">
      <use ffdec:characterId="29" height="71.5" transform="matrix(1.0, 0.0, 0.0, 1.0, 0.0, 0.0)" width="55.8" xlink:href="#shape0"/>
    </g>
    <g id="shape0">
      <path d="M55.8 35.75 Q55.8 50.55 47.6 61.0 39.4 71.5 27.9 71.5 16.35 71.5 8.15 61.0 0.0 50.55 0.0 35.75 0.0 20.95 8.15 10.45 16.35 0.0 27.9 0.0 39.4 0.0 47.6 10.45 55.8 20.95 55.8 35.75" fill="#ffff00" fill-opacity="0.0" fill-rule="evenodd" stroke="none"/>
    </g>
    <g id="sprite1">
      <use visibility="hidden" ffdec:characterId="34" height="79.0" id="lbHighlight" transform="matrix(1.0, 0.0, 0.0, 1.0, -7.0, -3.15)" width="64.5" xlink:href="#sprite2"/>
      <use ffdec:characterId="35" height="68.95" transform="matrix(1.0, 0.0, 0.0, 1.0, 0.0, 0.0)" width="51.6" xlink:href="#shape1"/>
    </g>
    <g id="sprite2">
      <use ffdec:characterId="31" height="79.0" transform="matrix(1.0, 0.0, 0.0, 1.0, 0.0, 0.0)" width="64.5" xlink:href="#morphshape0"/>
    </g>
    <g id="morphshape0">
      <path d="M0.0 39.5 Q0.0 55.85 9.4 67.4 18.9 79.0 32.25 79.0 45.6 79.0 55.05 67.4 64.5 55.85 64.5 39.5 64.5 23.15 55.05 11.55 45.6 0.0 32.25 0.0 18.9 0.0 9.4 11.55 0.0 23.15 0.0 39.5" fill="#66ff00" fill-rule="evenodd" stroke="none"/>
      <path d="M0.0 39.5 Q0.0 23.15 9.4 11.55 18.9 0.0 32.25 0.0 45.6 0.0 55.05 11.55 64.5 23.15 64.5 39.5 64.5 55.85 55.05 67.4 45.6 79.0 32.25 79.0 18.9 79.0 9.4 67.4 0.0 55.85 0.0 39.5 Z" ffdec:has-small-stroke="true" ffdec:original-stroke-width="0.0" fill="none" stroke="#000000" stroke-linecap="round" stroke-linejoin="round" stroke-opacity="0.0" stroke-width="1.0"/>
    </g>
    <g id="shape1">
      <path d="M8.7 19.1 Q8.55 17.2 9.35 15.0 10.1 12.95 11.4 11.2 14.25 7.55 17.4 5.9 L18.35 5.45 Q21.2 4.25 24.65 4.25 28.65 4.25 31.6 5.45 L32.1 5.65 Q35.6 7.2 38.4 10.75 39.6 12.45 40.25 14.7 41.0 16.95 41.0 18.95 35.5 23.95 24.55 23.95 13.5 23.95 8.7 19.1" fill="#000000" fill-rule="evenodd" stroke="none"/>
      <path d="M41.0 18.95 Q49.35 26.45 49.6 38.1 49.8 49.75 42.35 58.35 34.95 66.95 24.8 66.95 L24.55 66.95 Q14.7 66.8 7.25 58.15 -0.15 49.35 0.0 37.95 0.3 26.55 8.7 19.1 13.5 23.95 24.55 23.95 35.5 23.95 41.0 18.95 M24.55 23.95 L24.55 66.95 24.55 23.95" fill="#e9e9e9" fill-rule="evenodd" stroke="none"/>
      <path d="M41.0 18.95 Q49.35 26.45 49.6 38.1 49.8 49.75 42.35 58.35 34.95 66.95 24.8 66.95 L24.55 66.95 Q14.7 66.8 7.25 58.15 -0.15 49.35 0.0 37.95 0.3 26.55 8.7 19.1 8.55 17.2 9.35 15.0 10.1 12.95 11.4 11.2 14.25 7.55 17.4 5.9 L18.35 5.45 16.05 0.0 M41.0 18.95 Q41.0 16.95 40.25 14.7 39.6 12.45 38.4 10.75 35.6 7.2 32.1 5.65 L31.6 5.45 Q28.65 4.25 24.65 4.25 21.2 4.25 18.35 5.45 M31.6 5.45 L33.95 0.0 M8.7 19.1 Q13.5 23.95 24.55 23.95 35.5 23.95 41.0 18.95 M24.55 66.95 L24.55 23.95" fill="none" stroke="#000000" stroke-linecap="round" stroke-linejoin="round" stroke-width="2.0"/>
    </g>
    <g id="shape2">
      <path d="M28.9 22.4 Q30.4 22.4 31.5 23.5 32.6 24.6 32.6 26.1 32.6 27.6 31.5 28.7 30.4 29.75 28.9 29.75 27.35 29.75 26.35 28.7 25.25 27.6 25.25 26.1 25.25 24.6 26.35 23.5 27.35 22.4 28.9 22.4 M41.65 41.25 Q41.65 42.8 40.55 43.85 39.45 44.95 37.95 44.95 36.4 44.95 35.4 43.85 34.3 42.8 34.3 41.25 34.3 39.8 35.4 38.65 36.4 37.6 37.95 37.6 39.45 37.6 40.55 38.65 41.65 39.8 41.65 41.25 M40.55 28.5 Q41.65 29.6 41.65 31.1 41.65 32.6 40.55 33.7 39.45 34.75 37.95 34.75 36.4 34.75 35.4 33.7 34.3 32.6 34.3 31.1 34.3 29.6 35.4 28.5 36.4 27.4 37.95 27.4 39.45 27.4 40.55 28.5 M14.3 22.4 Q15.85 22.4 16.85 23.5 17.9 24.6 17.9 26.1 17.9 27.6 16.85 28.7 15.85 29.75 14.3 29.75 12.8 29.75 11.7 28.7 10.55 27.6 10.55 26.1 10.55 24.6 11.7 23.5 12.8 22.4 14.3 22.4 M14.3 32.6 Q15.85 32.6 16.85 33.65 17.9 34.8 17.9 36.25 17.9 37.8 16.85 38.85 15.85 39.95 14.3 39.95 12.8 39.95 11.7 38.85 10.55 37.8 10.55 36.25 10.55 34.8 11.7 33.65 12.8 32.6 14.3 32.6 M5.25 27.4 Q6.8 27.4 7.8 28.5 8.85 29.6 8.85 31.1 8.85 32.6 7.8 33.7 6.8 34.75 5.25 34.75 3.75 34.75 2.65 33.7 1.5 32.6 1.5 31.1 1.5 29.6 2.65 28.5 3.75 27.4 5.25 27.4 M2.65 38.65 Q3.75 37.6 5.25 37.6 6.8 37.6 7.8 38.65 8.85 39.8 8.85 41.25 8.85 42.8 7.8 43.85 6.8 44.95 5.25 44.95 3.75 44.95 2.65 43.85 1.5 42.8 1.5 41.25 1.5 39.8 2.65 38.65 M16.85 43.85 Q17.9 44.95 17.9 46.45 17.9 47.95 16.85 49.05 15.85 50.1 14.3 50.1 12.8 50.1 11.7 49.05 10.55 47.95 10.55 46.45 10.55 44.95 11.7 43.85 12.8 42.75 14.3 42.75 15.85 42.75 16.85 43.85 M26.35 49.05 Q25.25 47.95 25.25 46.45 25.25 44.95 26.35 43.85 27.35 42.75 28.9 42.75 30.4 42.75 31.5 43.85 32.6 44.95 32.6 46.45 32.6 47.95 31.5 49.05 30.4 50.1 28.9 50.1 27.35 50.1 26.35 49.05 M31.5 33.65 Q32.6 34.8 32.6 36.25 32.6 37.8 31.5 38.85 30.4 39.95 28.9 39.95 27.35 39.95 26.35 38.85 25.25 37.8 25.25 36.25 25.25 34.8 26.35 33.65 27.35 32.6 28.9 32.6 30.4 32.6 31.5 33.65" fill="#000000" fill-rule="evenodd" stroke="none"/>
    </g>
    <g id="text0">
      <g transform="matrix(1.0, 0.0, 0.0, 1.0, 68.9, 0.0)">
        <use fill="#000000" height="16.35" transform="matrix(0.0187, 0.0, 0.0, 0.0187, 2.0, 15.0)" width="22.4" xlink:href="#font_Jotter_Primary_10"/>
        <use fill="#000000" height="16.35" transform="matrix(0.0187, 0.0, 0.0, 0.0187, 6.4, 15.0)" width="22.4" xlink:href="#font_Jotter_Primary_00"/>
      </g>
    </g>
    <g id="font_Jotter_Primary_10">
      <path d="M106.15 -703.45 Q137.1 -704.3 140.45 -681.3 L140.45 -23.4 Q134.15 -2.1 104.1 -1.65 74.0 -1.65 67.7 -20.9 L71.05 -678.8 Q75.25 -703.05 106.15 -703.45" fill-rule="evenodd" stroke="none"/>
    </g>
    <g id="font_Jotter_Primary_00">
      <path d="M220.25 -647.0 Q56.0 -571.8 76.05 -323.5 74.4 -138.75 217.75 -67.7 239.5 -63.1 270.45 -67.7 290.05 -71.9 312.25 -85.25 437.2 -216.5 412.1 -416.3 410.05 -493.2 361.95 -564.25 326.45 -651.2 220.25 -647.0 M222.35 -714.75 Q264.6 -718.1 315.15 -702.2 456.45 -600.65 471.45 -401.25 491.1 -199.35 350.25 -35.1 L312.65 -15.05 307.65 -10.05 Q305.1 -10.45 302.6 -7.5 278.8 0.0 244.95 0.0 223.2 0.0 192.25 -7.5 L162.15 -25.1 142.1 -37.6 134.6 -42.65 Q-23.0 -209.8 26.75 -474.0 68.55 -665.0 222.35 -714.75" fill-rule="evenodd" stroke="none"/>
    </g>
  </defs>
</svg>
