<?xml version="1.0" encoding="UTF-8" standalone="no"?>
<svg xmlns:ffdec="https://www.free-decompiler.com/flash" xmlns:xlink="http://www.w3.org/1999/xlink" ffdec:objectType="frame" height="53.95px" width="84.75px" xmlns="http://www.w3.org/2000/svg">
  <g transform="matrix(1.0, 0.0, 0.0, 1.0, 40.45, 49.2)">
    <use ffdec:characterId="139" height="53.95" transform="matrix(1.0, 0.0, 0.0, 1.0, 0.0, 0.0)" width="84.75" xlink:href="#shape0"/>
    <use ffdec:characterId="140" height="13.15" transform="matrix(1.0493, 0.0366, -0.0366, 1.0493, -70.65, -29.55)" width="46.1" xlink:href="#text0"/>
    <use ffdec:characterId="141" height="10.45" transform="matrix(1.0493, 0.0367, -0.0367, 1.0493, -55.5, -12.85)" width="23.45" xlink:href="#text1"/>
  </g>
  <defs>
    <g id="shape0">
      <path d="M41.75 -9.65 L43.85 -9.1 Q44.4 -8.95 44.3 -8.5 L44.25 -8.1 33.4 3.9 Q32.65 4.9 31.45 4.7 L-36.4 -1.65 -36.95 -2.25 -36.95 -2.35 -36.95 -2.45 -36.1 -5.75 Q-36.45 -2.7 -35.5 -5.35 L-20.7 -13.55 39.15 -8.9 Q40.45 -9.7 41.75 -9.65" fill="#000000" fill-opacity="0.4" fill-rule="evenodd" stroke="none"/>
      <path d="M31.55 -34.1 L36.05 -20.45 36.2 -19.95 35.8 -18.05 31.8 2.3 31.15 2.75 31.55 1.3 Q32.9 -3.85 35.9 -19.85 L31.55 -34.1" fill="#584e2c" fill-rule="evenodd" stroke="none"/>
      <path d="M42.75 -44.2 L37.75 -39.2 Q34.7 -36.4 31.55 -34.45 L31.7 -35.45 31.45 -36.3 31.7 -35.45 31.55 -34.45 -39.45 -38.1 -39.15 -39.15 -38.25 -40.05 31.45 -36.3 41.95 -45.45 Q42.65 -45.35 42.75 -44.2" fill="#f7f297" fill-rule="evenodd" stroke="none"/>
      <path d="M31.55 -34.45 Q34.7 -36.4 37.75 -39.2 L42.75 -44.2 39.85 -25.25 39.0 -19.9 36.9 -17.85 36.2 -19.95 36.05 -20.45 31.55 -34.1 31.55 -34.45" fill="url(#gradient0)" fill-rule="evenodd" stroke="none"/>
      <path d="M31.55 -34.45 L31.55 -34.1 Q31.85 -19.85 31.55 1.3 L31.15 2.75 -35.9 -3.2 -36.85 -3.55 Q-37.55 -4.05 -37.7 -5.3 -39.1 -22.95 -39.45 -38.1 L31.55 -34.45" fill="url(#gradient1)" fill-rule="evenodd" stroke="none"/>
      <path d="M36.2 -19.95 L36.9 -17.85 35.8 -18.05 36.2 -19.95" fill="url(#gradient2)" fill-rule="evenodd" stroke="none"/>
      <path d="M36.9 -17.85 L39.0 -19.9 39.85 -25.25 42.9 -11.55 43.15 -10.25 42.65 -9.7 Q37.95 -4.15 31.8 2.3 L35.8 -18.05 36.9 -17.85" fill="url(#gradient3)" fill-rule="evenodd" stroke="none"/>
      <path d="M31.55 1.3 Q31.85 -19.85 31.55 -34.1 L35.9 -19.85 Q32.9 -3.85 31.55 1.3" fill="url(#gradient4)" fill-rule="evenodd" stroke="none"/>
      <path d="M39.85 -25.25 L42.75 -44.2 Q43.35 -27.7 42.9 -11.55 L39.85 -25.25" fill="url(#gradient5)" fill-rule="evenodd" stroke="none"/>
      <path d="M41.95 -45.45 L31.45 -36.3 -38.25 -40.05 -22.7 -47.9 -20.2 -48.2 41.95 -45.45" fill="url(#gradient6)" fill-rule="evenodd" stroke="none"/>
      <path d="M42.75 -44.2 L37.75 -39.2 Q34.7 -36.4 31.55 -34.45 L-39.45 -38.1 M31.55 -34.1 L36.05 -20.45 36.2 -19.95 36.9 -17.85 39.0 -19.9 39.85 -25.25 42.75 -44.2 M41.95 -45.45 L31.45 -36.3 31.7 -35.45 31.55 -34.45 M31.55 1.3 Q31.85 -19.85 31.55 -34.1 L35.9 -19.85 Q32.9 -3.85 31.55 1.3 M35.8 -18.05 L31.8 2.3 M42.9 -11.55 L39.85 -25.25 M35.8 -18.05 L36.2 -19.95 M-38.25 -40.05 L31.45 -36.3" ffdec:has-small-stroke="true" ffdec:original-stroke-width="0.05" fill="none" stroke="#6f622d" stroke-linecap="round" stroke-linejoin="round" stroke-width="1.0"/>
      <path d="M42.75 -44.2 Q42.65 -45.35 41.95 -45.45 L-20.2 -48.2 -22.7 -47.9 -38.25 -40.05 -39.15 -39.15 -39.45 -38.1 Q-39.1 -22.95 -37.7 -5.3 -37.55 -4.05 -36.85 -3.55 L-35.9 -3.2 31.15 2.75 31.55 1.3 M31.8 2.3 Q37.95 -4.15 42.65 -9.7 L43.15 -10.25 42.9 -11.55 Q43.35 -27.7 42.75 -44.2 M31.15 2.75 L31.8 2.3" fill="none" stroke="#514720" stroke-linecap="round" stroke-linejoin="round" stroke-width="2.0"/>
      <path d="M-19.2 -28.2 Q-17.95 -27.75 -18.0 -26.75 L-17.5 -26.45 Q-16.15 -25.8 -15.3 -23.85 -14.2 -19.0 -18.05 -15.75 -18.7 -13.95 -20.1 -13.55 L-22.6 -13.1 -23.15 -13.1 Q-25.2 -12.0 -28.9 -13.05 -30.8 -13.75 -31.45 -14.85 -32.65 -16.15 -33.0 -17.65 -33.65 -18.45 -33.7 -19.6 -34.5 -20.1 -34.75 -21.5 L-35.45 -22.55 -35.85 -23.65 -36.65 -25.0 Q-37.5 -26.15 -37.3 -26.5 L-36.45 -27.0 Q-34.5 -27.75 -32.2 -27.95 -30.8 -31.75 -26.5 -32.35 -22.3 -32.65 -21.95 -30.75 L-21.55 -30.6 Q-20.75 -30.25 -20.6 -29.55 -19.55 -29.1 -19.2 -28.2" fill="#d59a01" fill-rule="evenodd" stroke="none"/>
      <path d="M-19.2 -28.2 Q-19.55 -29.1 -20.6 -29.55 -20.75 -30.25 -21.55 -30.6 L-21.95 -30.75 Q-22.3 -32.65 -26.5 -32.35 -30.8 -31.75 -32.2 -27.95 -34.5 -27.75 -36.45 -27.0 L-37.3 -26.5 Q-37.5 -26.15 -36.65 -25.0 L-35.85 -23.65 -35.45 -22.55 -34.75 -21.5 Q-34.5 -20.1 -33.7 -19.6 -33.65 -18.45 -33.0 -17.65 -32.65 -16.15 -31.45 -14.85 -30.8 -13.75 -28.9 -13.05 -25.2 -12.0 -23.15 -13.1 L-22.6 -13.1 -20.1 -13.55 Q-18.7 -13.95 -18.05 -15.75 -14.2 -19.0 -15.3 -23.85 -16.15 -25.8 -17.5 -26.45 L-18.0 -26.75 Q-17.95 -27.75 -19.2 -28.2 Z" ffdec:has-small-stroke="true" ffdec:original-stroke-width="0.05" fill="none" stroke="#00ff00" stroke-linecap="round" stroke-linejoin="round" stroke-opacity="0.3019608" stroke-width="1.0"/>
      <path d="M-19.2 -28.2 Q-20.85 -29.25 -23.55 -28.9 -26.35 -28.5 -26.75 -27.95 -25.65 -28.1 -25.35 -27.65 -28.65 -26.4 -29.95 -22.8 -30.8 -20.55 -30.6 -17.95 -30.45 -15.4 -29.55 -14.25 -29.05 -13.65 -27.4 -13.35 L-24.2 -13.15 Q-25.55 -13.4 -26.95 -14.05 L-28.7 -15.4 Q-31.1 -18.1 -28.7 -23.1 -24.35 -29.8 -18.0 -26.75 -17.95 -27.75 -19.2 -28.2 -19.55 -29.1 -20.6 -29.55 -22.7 -30.35 -24.8 -30.05 -28.1 -29.7 -29.35 -28.15 L-28.6 -28.0 -27.05 -27.85 -26.75 -27.95 M-24.2 -13.15 L-23.15 -13.1 -22.6 -13.1 -20.1 -13.55 Q-22.5 -13.0 -24.95 -13.95 -28.1 -15.5 -28.4 -18.1 -28.55 -21.45 -25.35 -24.2 -21.6 -26.55 -18.25 -25.0 -16.1 -23.95 -15.7 -21.7 -15.45 -20.1 -16.3 -18.35 -17.15 -16.9 -17.95 -16.35 L-17.95 -16.15 -18.05 -15.75 Q-14.2 -19.0 -15.3 -23.85 -16.15 -25.8 -17.5 -26.45 L-18.0 -26.75 M-36.65 -25.0 L-35.85 -23.65 Q-36.25 -26.3 -34.5 -27.6 -35.45 -27.85 -36.45 -27.0 L-37.3 -26.5 Q-37.5 -26.15 -36.65 -25.0 M-31.15 -28.2 L-32.15 -28.05 -32.5 -27.9 Q-34.25 -26.5 -34.75 -24.85 -35.15 -22.95 -34.75 -21.5 -34.5 -20.1 -33.7 -19.6 -34.1 -22.3 -33.55 -24.3 -33.0 -26.45 -30.45 -28.05 L-31.15 -28.2 Q-29.35 -30.75 -25.85 -31.05 -24.5 -31.25 -23.25 -31.05 L-21.95 -30.75 Q-22.3 -32.65 -26.5 -32.35 -30.8 -31.75 -32.15 -28.05 M-32.5 -27.9 Q-33.45 -28.15 -34.5 -27.6 M-20.6 -29.55 Q-20.75 -30.25 -21.55 -30.6 L-21.95 -30.75 M-29.35 -28.15 L-30.45 -28.05 M-24.4 -21.6 Q-25.6 -20.55 -26.15 -19.1 -26.65 -17.7 -26.2 -16.45 -25.7 -15.15 -24.15 -14.35 L-20.75 -14.1 Q-19.05 -14.35 -19.4 -15.2 -19.65 -15.95 -20.35 -15.9 -21.05 -15.75 -20.8 -15.2 -21.55 -14.9 -22.35 -15.85 L-23.8 -20.0 -24.4 -21.6 Q-23.55 -22.3 -22.3 -22.8 L-20.95 -23.2 Q-17.55 -24.05 -16.4 -22.05 -15.25 -20.05 -17.5 -17.1 L-17.95 -16.65 -17.95 -16.35 M-27.05 -27.85 Q-31.0 -25.6 -31.85 -20.7 -32.15 -19.25 -31.8 -17.25 -31.45 -15.2 -29.5 -13.3 L-28.9 -13.05 Q-25.2 -12.0 -23.15 -13.1 M-33.7 -19.6 Q-33.65 -18.45 -33.0 -17.65 -33.3 -20.4 -32.05 -23.7 -30.8 -26.95 -28.6 -28.0 M-33.0 -17.65 Q-32.65 -16.15 -31.45 -14.85 -30.9 -13.95 -29.5 -13.3 M-35.85 -23.65 L-35.45 -22.55 -34.75 -21.5 M-20.1 -13.55 Q-18.7 -13.95 -18.05 -15.75 -17.9 -19.9 -23.8 -20.0 M-17.95 -16.65 Q-18.0 -19.1 -22.3 -22.8" ffdec:has-small-stroke="true" ffdec:original-stroke-width="0.05" fill="none" stroke="#00ff00" stroke-linecap="round" stroke-linejoin="round" stroke-opacity="0.3019608" stroke-width="1.0"/>
      <path d="M-16.55 -25.75 L-17.5 -26.45 -16.5 -25.7 Q-24.35 -29.8 -28.7 -23.1 -31.1 -18.1 -28.7 -15.4 L-26.95 -14.05 Q-25.55 -13.4 -24.2 -13.15 L-27.4 -13.35 Q-29.05 -13.65 -29.55 -14.25 -30.45 -15.4 -30.6 -17.95 -30.8 -20.55 -29.95 -22.8 -28.65 -26.4 -25.35 -27.65 -25.65 -28.1 -26.75 -27.95 -26.35 -28.5 -23.55 -28.9 -20.85 -29.25 -19.2 -28.2 -17.95 -27.75 -16.55 -25.75" fill="url(#gradient7)" fill-rule="evenodd" stroke="none"/>
      <path d="M-33.95 -19.05 Q-34.5 -20.1 -34.75 -21.5 -35.15 -22.95 -34.75 -24.85 -34.25 -26.5 -32.5 -27.9 L-32.15 -28.05 -31.15 -28.2 -30.45 -28.05 Q-33.0 -26.45 -33.55 -24.3 -34.1 -22.3 -33.95 -19.05" fill="url(#gradient8)" fill-rule="evenodd" stroke="none"/>
      <path d="M-34.75 -21.5 L-35.45 -22.55 -35.85 -23.65 Q-36.25 -26.3 -34.5 -27.6 -33.45 -28.15 -32.5 -27.9 -34.25 -26.5 -34.75 -24.85 -35.15 -22.95 -34.75 -21.5" fill="url(#gradient9)" fill-rule="evenodd" stroke="none"/>
      <path d="M-32.15 -28.05 Q-30.8 -31.75 -26.5 -32.35 -22.3 -32.65 -21.95 -30.75 L-23.25 -31.05 Q-24.5 -31.25 -25.85 -31.05 -29.35 -30.75 -31.15 -28.2 L-32.15 -28.05" fill="url(#gradient10)" fill-rule="evenodd" stroke="none"/>
      <path d="M-21.95 -30.75 L-21.55 -30.6 Q-20.75 -30.25 -20.6 -29.55 -22.7 -30.35 -24.8 -30.05 -28.1 -29.7 -29.35 -28.15 L-30.45 -28.05 -31.15 -28.2 Q-29.35 -30.75 -25.85 -31.05 -24.5 -31.25 -23.25 -31.05 L-21.95 -30.75" fill="url(#gradient11)" fill-rule="evenodd" stroke="none"/>
      <path d="M-35.85 -23.65 L-36.65 -25.0 Q-37.5 -26.15 -37.3 -26.5 L-36.45 -27.0 Q-35.45 -27.85 -34.5 -27.6 -36.25 -26.3 -35.85 -23.65" fill="url(#gradient12)" fill-rule="evenodd" stroke="none"/>
      <path d="M-33.0 -17.65 L-33.95 -19.05 Q-34.1 -22.3 -33.55 -24.3 -33.0 -26.45 -30.45 -28.05 L-29.35 -28.15 -28.6 -28.0 Q-30.8 -26.95 -32.05 -23.7 -33.3 -20.4 -33.0 -17.65" fill="url(#gradient13)" fill-rule="evenodd" stroke="none"/>
      <path d="M-19.2 -28.2 Q-20.85 -29.25 -23.55 -28.9 -26.35 -28.5 -26.75 -27.95 L-27.05 -27.85 -28.6 -28.0 -29.35 -28.15 Q-28.1 -29.7 -24.8 -30.05 -22.7 -30.35 -20.6 -29.55 -19.55 -29.1 -19.2 -28.2" fill="url(#gradient14)" fill-rule="evenodd" stroke="none"/>
      <path d="M-29.5 -13.3 Q-30.9 -13.95 -31.45 -14.85 -32.65 -16.15 -33.0 -17.65 -33.3 -20.4 -32.05 -23.7 -30.8 -26.95 -28.6 -28.0 L-27.05 -27.85 Q-31.0 -25.6 -31.85 -20.7 -32.15 -19.25 -31.8 -17.25 -31.45 -15.2 -29.5 -13.3" fill="url(#gradient15)" fill-rule="evenodd" stroke="none"/>
      <path d="M-26.75 -27.95 Q-25.65 -28.1 -25.35 -27.65 -28.65 -26.4 -29.95 -22.8 -30.8 -20.55 -30.6 -17.95 -30.45 -15.4 -29.55 -14.25 -29.05 -13.65 -27.4 -13.35 L-24.2 -13.15 -23.15 -13.1 Q-25.2 -12.0 -28.9 -13.05 L-29.5 -13.3 Q-31.45 -15.2 -31.8 -17.25 -32.15 -19.25 -31.85 -20.7 -31.0 -25.6 -27.05 -27.85 L-26.75 -27.95" fill="url(#gradient16)" fill-rule="evenodd" stroke="none"/>
      <path d="M-19.35 -14.9 Q-19.45 -14.3 -20.75 -14.1 L-24.15 -14.35 Q-25.7 -15.15 -26.2 -16.45 -26.65 -17.7 -26.15 -19.1 -25.6 -20.55 -24.4 -21.6 -23.55 -22.3 -22.3 -22.8 L-20.95 -23.2 Q-17.55 -24.05 -16.4 -22.05 -15.25 -20.05 -17.5 -17.1 L-17.95 -16.65 -17.95 -16.35 -18.05 -16.2 Q-18.2 -19.9 -23.8 -20.0 L-22.35 -15.85 Q-21.55 -14.9 -20.8 -15.2 -21.05 -15.75 -20.35 -15.9 -19.65 -15.95 -19.4 -15.2 L-19.35 -14.9 M-24.1 -20.75 L-23.8 -20.0 -24.1 -20.75 M-21.3 -21.8 Q-18.0 -18.8 -17.95 -16.65 -18.0 -18.8 -21.3 -21.8" fill="url(#gradient17)" fill-rule="evenodd" stroke="none"/>
      <path d="M-18.05 -15.75 Q-18.7 -13.95 -20.1 -13.55 -22.5 -13.0 -24.95 -13.95 -28.1 -15.5 -28.4 -18.1 -28.55 -21.45 -25.35 -24.2 -21.6 -26.55 -18.25 -25.0 -16.1 -23.95 -15.7 -21.7 -15.45 -20.1 -16.3 -18.35 -17.15 -16.9 -17.95 -16.35 L-17.95 -16.65 -17.5 -17.1 Q-15.25 -20.05 -16.4 -22.05 -17.55 -24.05 -20.95 -23.2 L-22.3 -22.8 Q-23.55 -22.3 -24.4 -21.6 -25.6 -20.55 -26.15 -19.1 -26.65 -17.7 -26.2 -16.45 -25.7 -15.15 -24.15 -14.35 L-20.75 -14.1 Q-19.45 -14.3 -19.35 -14.9 L-18.05 -16.2 -18.05 -15.75" fill="url(#gradient18)" fill-rule="evenodd" stroke="none"/>
      <path d="M-24.2 -13.15 Q-25.55 -13.4 -26.95 -14.05 L-28.7 -15.4 Q-31.1 -18.1 -28.7 -23.1 -24.35 -29.8 -16.5 -25.7 -15.85 -25.0 -15.3 -23.85 -14.2 -19.0 -18.05 -15.75 L-17.95 -16.15 -17.95 -16.35 Q-17.15 -16.9 -16.3 -18.35 -15.45 -20.1 -15.7 -21.7 -16.1 -23.95 -18.25 -25.0 -21.6 -26.55 -25.35 -24.2 -28.55 -21.45 -28.4 -18.1 -28.1 -15.5 -24.95 -13.95 -22.5 -13.0 -20.1 -13.55 L-22.6 -13.1 -23.15 -13.1 -24.2 -13.15" fill="url(#gradient19)" fill-rule="evenodd" stroke="none"/>
      <path d="M-19.35 -14.9 L-19.4 -15.2 Q-19.65 -15.95 -20.35 -15.9 -21.05 -15.75 -20.8 -15.2 -21.55 -14.9 -22.35 -15.85 L-23.8 -20.0 Q-18.2 -19.9 -18.05 -16.2 L-19.35 -14.9" fill="url(#gradient20)" fill-rule="evenodd" stroke="none"/>
      <path d="M-17.95 -16.35 L-17.95 -16.15 -18.05 -15.75 -18.05 -16.2 -17.95 -16.35" fill="url(#gradient21)" fill-rule="evenodd" stroke="none"/>
      <path d="M-16.5 -25.7 L-16.55 -25.75 Q-17.95 -27.75 -19.2 -28.2 -20.85 -29.25 -23.55 -28.9 -26.35 -28.5 -26.75 -27.95 -25.65 -28.1 -25.35 -27.65 -28.65 -26.4 -29.95 -22.8 -30.8 -20.55 -30.6 -17.95 -30.45 -15.4 -29.55 -14.25 -29.05 -13.65 -27.4 -13.35 L-24.2 -13.15 -23.15 -13.1 Q-25.2 -12.0 -28.9 -13.05 L-29.5 -13.3 Q-30.9 -13.95 -31.45 -14.85 -32.65 -16.15 -33.0 -17.65 L-33.95 -19.05 Q-34.5 -20.1 -34.75 -21.5 L-35.45 -22.55 -35.85 -23.65 -36.65 -25.0 Q-37.5 -26.15 -37.3 -26.5 L-36.45 -27.0 Q-35.45 -27.85 -34.5 -27.6 -33.45 -28.15 -32.5 -27.9 L-32.15 -28.05 Q-30.8 -31.75 -26.5 -32.35 -22.3 -32.65 -21.95 -30.75 L-21.55 -30.6 Q-20.75 -30.25 -20.6 -29.55 -19.55 -29.1 -19.2 -28.2 M-16.5 -25.7 Q-15.85 -25.0 -15.3 -23.85 -14.2 -19.0 -18.05 -15.75 -18.7 -13.95 -20.1 -13.55 L-22.6 -13.1 -23.15 -13.1 M-30.45 -28.05 L-31.15 -28.2 -32.15 -28.05 M-32.5 -27.9 Q-34.25 -26.5 -34.75 -24.85 -35.15 -22.95 -34.75 -21.5 M-28.6 -28.0 L-29.35 -28.15 -30.45 -28.05 M-27.05 -27.85 L-28.6 -28.0 Q-30.8 -26.95 -32.05 -23.7 -33.3 -20.4 -33.0 -17.65 M-26.75 -27.95 L-27.05 -27.85 M-31.15 -28.2 Q-29.35 -30.75 -25.85 -31.05 -24.5 -31.25 -23.25 -31.05 L-21.95 -30.75 M-17.95 -16.65 L-17.5 -17.1 Q-15.25 -20.05 -16.4 -22.05 -17.55 -24.05 -20.95 -23.2 L-22.3 -22.8 Q-23.55 -22.3 -24.4 -21.6 -25.6 -20.55 -26.15 -19.1 -26.65 -17.7 -26.2 -16.45 -25.7 -15.15 -24.15 -14.35 L-20.75 -14.1 Q-19.45 -14.3 -19.35 -14.9 L-19.4 -15.2 Q-19.65 -15.95 -20.35 -15.9 -21.05 -15.75 -20.8 -15.2 -21.55 -14.9 -22.35 -15.85 L-23.8 -20.0 -24.1 -20.75 M-20.1 -13.55 Q-22.5 -13.0 -24.95 -13.95 -28.1 -15.5 -28.4 -18.1 -28.55 -21.45 -25.35 -24.2 -21.6 -26.55 -18.25 -25.0 -16.1 -23.95 -15.7 -21.7 -15.45 -20.1 -16.3 -18.35 -17.15 -16.9 -17.95 -16.35 L-17.95 -16.15 -18.05 -15.75 -18.05 -16.2 -19.35 -14.9 M-18.05 -16.2 L-17.95 -16.35 -17.95 -16.65 Q-18.0 -18.8 -21.3 -21.8 M-18.05 -16.2 Q-18.2 -19.9 -23.8 -20.0" ffdec:has-small-stroke="true" ffdec:original-stroke-width="0.05" fill="none" stroke="#cb7b00" stroke-linecap="round" stroke-linejoin="round" stroke-width="1.0"/>
    </g>
    <linearGradient gradientTransform="matrix(-0.0059, 0.0, 0.0, 0.0161, 37.15, -31.05)" gradientUnits="userSpaceOnUse" id="gradient0" spreadMethod="pad" x1="-819.2" x2="819.2">
      <stop offset="0.0" stop-color="#c3a46c"/>
      <stop offset="0.15294117647058825" stop-color="#cabd7a"/>
      <stop offset="0.4470588235294118" stop-color="#ccc17c"/>
      <stop offset="0.8313725490196079" stop-color="#cbbf7b"/>
      <stop offset="1.0" stop-color="#b3a066"/>
      <stop offset="1.0" stop-color="#c5ab70"/>
    </linearGradient>
    <linearGradient gradientTransform="matrix(0.0015, -0.0242, -0.0252, -0.0015, -3.8, -17.85)" gradientUnits="userSpaceOnUse" id="gradient1" spreadMethod="pad" x1="-819.2" x2="819.2">
      <stop offset="0.0" stop-color="#c3a46c"/>
      <stop offset="0.15294117647058825" stop-color="#decf86"/>
      <stop offset="0.4470588235294118" stop-color="#d7d678"/>
      <stop offset="0.8313725490196079" stop-color="#d9cc83"/>
      <stop offset="1.0" stop-color="#b3a066"/>
      <stop offset="1.0" stop-color="#c5ab70"/>
    </linearGradient>
    <linearGradient gradientTransform="matrix(-7.0E-4, 0.0, 0.0, 0.0013, 36.35, -18.9)" gradientUnits="userSpaceOnUse" id="gradient2" spreadMethod="pad" x1="-819.2" x2="819.2">
      <stop offset="0.0" stop-color="#c3a46c"/>
      <stop offset="0.15294117647058825" stop-color="#cabd7a"/>
      <stop offset="0.4470588235294118" stop-color="#ccc17c"/>
      <stop offset="0.8313725490196079" stop-color="#cbbf7b"/>
      <stop offset="1.0" stop-color="#b3a066"/>
      <stop offset="1.0" stop-color="#c5ab70"/>
    </linearGradient>
    <linearGradient gradientTransform="matrix(-0.0069, 0.0, 0.0, 0.0168, 37.5, -11.5)" gradientUnits="userSpaceOnUse" id="gradient3" spreadMethod="pad" x1="-819.2" x2="819.2">
      <stop offset="0.0" stop-color="#c3a46c"/>
      <stop offset="0.15294117647058825" stop-color="#cabd7a"/>
      <stop offset="0.4470588235294118" stop-color="#ccc17c"/>
      <stop offset="0.8313725490196079" stop-color="#cbbf7b"/>
      <stop offset="1.0" stop-color="#b3a066"/>
      <stop offset="1.0" stop-color="#c5ab70"/>
    </linearGradient>
    <linearGradient gradientTransform="matrix(-0.0027, 0.0, 0.0, 0.0219, 33.75, -16.65)" gradientUnits="userSpaceOnUse" id="gradient4" spreadMethod="pad" x1="-819.2" x2="819.2">
      <stop offset="0.0" stop-color="#c3a46c"/>
      <stop offset="0.15294117647058825" stop-color="#cabd7a"/>
      <stop offset="0.4470588235294118" stop-color="#ccc17c"/>
      <stop offset="0.8313725490196079" stop-color="#cbbf7b"/>
      <stop offset="1.0" stop-color="#b3a066"/>
      <stop offset="1.0" stop-color="#c5ab70"/>
    </linearGradient>
    <linearGradient gradientTransform="matrix(-0.002, 0.0, 0.0, 0.0199, 41.5, -27.9)" gradientUnits="userSpaceOnUse" id="gradient5" spreadMethod="pad" x1="-819.2" x2="819.2">
      <stop offset="0.0" stop-color="#c3a46c"/>
      <stop offset="0.15294117647058825" stop-color="#cabd7a"/>
      <stop offset="0.4470588235294118" stop-color="#ccc17c"/>
      <stop offset="0.8313725490196079" stop-color="#cbbf7b"/>
      <stop offset="1.0" stop-color="#b3a066"/>
      <stop offset="1.0" stop-color="#c5ab70"/>
    </linearGradient>
    <linearGradient gradientTransform="matrix(4.0E-4, -0.0065, -0.0075, -4.0E-4, 1.85, -42.05)" gradientUnits="userSpaceOnUse" id="gradient6" spreadMethod="pad" x1="-819.2" x2="819.2">
      <stop offset="0.0" stop-color="#c3a46c"/>
      <stop offset="0.15294117647058825" stop-color="#d7c981"/>
      <stop offset="0.4470588235294118" stop-color="#d9cd79"/>
      <stop offset="0.8313725490196079" stop-color="#d9cd83"/>
      <stop offset="1.0" stop-color="#b3a066"/>
      <stop offset="1.0" stop-color="#c5ab70"/>
    </linearGradient>
    <radialGradient cx="0" cy="0" fx="16.0" fy="0" gradientTransform="matrix(-0.0141, 0.0, 0.0, 0.0106, -23.0, -20.6)" gradientUnits="userSpaceOnUse" id="gradient7" r="819.2" spreadMethod="pad">
      <stop offset="0.0196078431372549" stop-color="#da9600"/>
      <stop offset="0.8392156862745098" stop-color="#e6c362"/>
      <stop offset="0.9294117647058824" stop-color="#e9cd77"/>
      <stop offset="1.0" stop-color="#f7da7e"/>
    </radialGradient>
    <radialGradient cx="0" cy="0" fx="16.0" fy="0" gradientTransform="matrix(-0.0078, 0.0, 0.0, 0.0078, -31.65, -27.75)" gradientUnits="userSpaceOnUse" id="gradient8" r="819.2" spreadMethod="pad">
      <stop offset="0.0" stop-color="#da9600"/>
      <stop offset="1.0" stop-color="#f7da7e"/>
    </radialGradient>
    <radialGradient cx="0" cy="0" fx="16.0" fy="0" gradientTransform="matrix(-0.0061, 0.0, 0.0, 0.0061, -33.1, -28.0)" gradientUnits="userSpaceOnUse" id="gradient9" r="819.2" spreadMethod="pad">
      <stop offset="0.0" stop-color="#da9600"/>
      <stop offset="1.0" stop-color="#f7da7e"/>
    </radialGradient>
    <radialGradient cx="0" cy="0" fx="16.0" fy="0" gradientTransform="matrix(-0.0082, 0.0, 0.0, 0.0082, -25.95, -26.15)" gradientUnits="userSpaceOnUse" id="gradient10" r="819.2" spreadMethod="pad">
      <stop offset="0.0196078431372549" stop-color="#da9600"/>
      <stop offset="0.9294117647058824" stop-color="#e6c362"/>
      <stop offset="1.0" stop-color="#f7da7e"/>
    </radialGradient>
    <radialGradient cx="0" cy="0" fx="16.0" fy="0" gradientTransform="matrix(-0.0099, 0.0, 0.0, 0.0099, -25.15, -23.4)" gradientUnits="userSpaceOnUse" id="gradient11" r="819.2" spreadMethod="pad">
      <stop offset="0.0196078431372549" stop-color="#da9600"/>
      <stop offset="0.7294117647058823" stop-color="#e0ae35"/>
      <stop offset="0.8745098039215686" stop-color="#e6c362"/>
      <stop offset="1.0" stop-color="#e9d36d"/>
    </radialGradient>
    <radialGradient cx="0" cy="0" fx="16.0" fy="0" gradientTransform="matrix(-0.003, 0.0, 0.0, 0.003, -35.35, -26.95)" gradientUnits="userSpaceOnUse" id="gradient12" r="819.2" spreadMethod="pad">
      <stop offset="0.0" stop-color="#da9600"/>
      <stop offset="1.0" stop-color="#f7da7e"/>
    </radialGradient>
    <radialGradient cx="0" cy="0" fx="16.0" fy="0" gradientTransform="matrix(-0.0086, 0.0, 0.0, 0.0086, -30.45, -25.8)" gradientUnits="userSpaceOnUse" id="gradient13" r="819.2" spreadMethod="pad">
      <stop offset="0.0" stop-color="#da9600"/>
      <stop offset="1.0" stop-color="#f7da7e"/>
    </radialGradient>
    <radialGradient cx="0" cy="0" fx="16.0" fy="0" gradientTransform="matrix(-0.0107, 0.0, 0.0, 0.0107, -24.4, -21.6)" gradientUnits="userSpaceOnUse" id="gradient14" r="819.2" spreadMethod="pad">
      <stop offset="0.0196078431372549" stop-color="#da9600"/>
      <stop offset="0.5176470588235295" stop-color="#e0ae35"/>
      <stop offset="0.8745098039215686" stop-color="#e6c362"/>
      <stop offset="0.9254901960784314" stop-color="#e9d36d"/>
    </radialGradient>
    <radialGradient cx="0" cy="0" fx="16.0" fy="0" gradientTransform="matrix(-0.0124, 0.0, 0.0, 0.0124, -29.55, -23.8)" gradientUnits="userSpaceOnUse" id="gradient15" r="819.2" spreadMethod="pad">
      <stop offset="0.0" stop-color="#da9600"/>
      <stop offset="1.0" stop-color="#f7da7e"/>
    </radialGradient>
    <radialGradient cx="0" cy="0" fx="16.0" fy="0" gradientTransform="matrix(-0.0148, 0.0, 0.0, 0.0148, -27.85, -22.65)" gradientUnits="userSpaceOnUse" id="gradient16" r="819.2" spreadMethod="pad">
      <stop offset="0.0" stop-color="#da9600"/>
      <stop offset="1.0" stop-color="#f7da7e"/>
    </radialGradient>
    <radialGradient cx="0" cy="0" gradientTransform="matrix(-0.0064, 0.0, 0.0, 0.0064, -20.95, -19.6)" gradientUnits="userSpaceOnUse" id="gradient17" r="819.2" spreadMethod="pad">
      <stop offset="0.0196078431372549" stop-color="#cd8d00"/>
      <stop offset="0.796078431372549" stop-color="#d7a732"/>
      <stop offset="1.0" stop-color="#d2b157"/>
    </radialGradient>
    <radialGradient cx="0" cy="0" gradientTransform="matrix(-0.0086, 0.0, 0.0, 0.0086, -22.05, -19.5)" gradientUnits="userSpaceOnUse" id="gradient18" r="819.2" spreadMethod="pad">
      <stop offset="0.0" stop-color="#c87400"/>
      <stop offset="0.4470588235294118" stop-color="#e9cd77"/>
      <stop offset="0.49411764705882355" stop-color="#e9cd77"/>
      <stop offset="1.0" stop-color="#da9600"/>
      <stop offset="1.0" stop-color="#c5ab70"/>
    </radialGradient>
    <radialGradient cx="0" cy="0" gradientTransform="matrix(-0.015, 0.0, 0.0, 0.0144, -21.7, -19.6)" gradientUnits="userSpaceOnUse" id="gradient19" r="819.2" spreadMethod="pad">
      <stop offset="0.0196078431372549" stop-color="#da9600"/>
      <stop offset="0.5764705882352941" stop-color="#e0ae35"/>
      <stop offset="0.6627450980392157" stop-color="#e6c362"/>
      <stop offset="0.9254901960784314" stop-color="#e9cd77"/>
    </radialGradient>
    <radialGradient cx="0" cy="0" gradientTransform="matrix(-0.0047, 0.0, 0.0, 0.0047, -20.95, -17.4)" gradientUnits="userSpaceOnUse" id="gradient20" r="819.2" spreadMethod="pad">
      <stop offset="0.0" stop-color="#b47b00"/>
      <stop offset="0.49019607843137253" stop-color="#d7a732"/>
      <stop offset="1.0" stop-color="#dab85b"/>
    </radialGradient>
    <radialGradient cx="0" cy="0" gradientTransform="matrix(-0.0064, 0.0, 0.0, 0.0064, -20.95, -19.6)" gradientUnits="userSpaceOnUse" id="gradient21" r="819.2" spreadMethod="pad">
      <stop offset="0.0196078431372549" stop-color="#da9600"/>
      <stop offset="0.6509803921568628" stop-color="#d7a732"/>
      <stop offset="1.0" stop-color="#dab85b"/>
    </radialGradient>
    <g id="text0">
      <g transform="matrix(1.0, 0.0, 0.0, 1.0, 53.2, 0.0)">
        <use fill="#000000" height="13.15" transform="matrix(0.0134, 0.0, 0.0, 0.0134, 0.0, 13.0)" width="46.1" xlink:href="#font_Arial_B0"/>
        <use fill="#000000" height="13.15" transform="matrix(0.0134, 0.0, 0.0, 0.0134, 9.35, 13.0)" width="46.1" xlink:href="#font_Arial_u0"/>
        <use fill="#000000" height="13.15" transform="matrix(0.0134, 0.0, 0.0, 0.0134, 17.15, 13.0)" width="46.1" xlink:href="#font_Arial_t0"/>
        <use fill="#000000" height="13.15" transform="matrix(0.0134, 0.0, 0.0, 0.0134, 21.05, 13.0)" width="46.1" xlink:href="#font_Arial_t0"/>
        <use fill="#000000" height="13.15" transform="matrix(0.0134, 0.0, 0.0, 0.0134, 24.95, 13.0)" width="46.1" xlink:href="#font_Arial_e0"/>
        <use fill="#000000" height="13.15" transform="matrix(0.0134, 0.0, 0.0, 0.0134, 32.75, 13.0)" width="46.1" xlink:href="#font_Arial_r0"/>
      </g>
    </g>
    <g id="font_Arial_B0">
      <path d="M175.15 -88.1 L175.15 -344.75 347.8 -344.75 Q419.1 -344.75 457.25 -332.0 494.95 -319.8 516.35 -288.7 537.7 -258.15 537.7 -216.4 537.7 -180.75 522.95 -153.25 508.2 -126.3 485.3 -112.05 462.35 -97.75 428.25 -91.65 408.9 -88.1 361.05 -88.1 L175.15 -88.1 M175.15 -432.85 L175.15 -658.4 324.35 -658.4 Q404.8 -658.4 437.9 -647.7 471.0 -637.55 488.85 -609.0 506.65 -581.0 506.65 -543.85 506.65 -504.65 487.8 -478.65 468.45 -452.7 430.8 -441.5 402.25 -432.85 336.6 -432.85 L175.15 -432.85 M76.4 0.0 L361.05 0.0 Q432.3 0.0 481.7 -12.2 530.6 -24.95 563.2 -49.4 595.75 -73.85 618.2 -118.65 640.1 -163.95 640.1 -216.4 640.1 -281.6 603.9 -329.45 567.25 -377.3 499.55 -397.2 552.0 -423.15 577.95 -465.4 603.9 -507.7 603.9 -555.55 603.9 -607.0 574.9 -653.8 545.35 -701.2 493.95 -723.6 442.0 -746.5 356.45 -746.5 L76.4 -746.5 76.4 0.0" fill-rule="evenodd" stroke="none"/>
    </g>
    <g id="font_Arial_u0">
      <path d="M423.15 0.0 L505.15 0.0 505.15 -540.8 413.5 -540.8 413.5 -251.05 Q413.5 -181.8 398.7 -145.1 383.45 -108.95 347.3 -87.6 311.15 -66.7 269.9 -66.7 228.65 -66.7 200.65 -87.05 172.6 -107.95 163.95 -144.1 158.35 -169.05 158.35 -240.85 L158.35 -540.8 66.7 -540.8 66.7 -205.7 Q66.7 -147.15 72.3 -120.15 80.45 -79.95 100.8 -51.95 120.7 -24.45 162.45 -6.1 203.7 12.2 251.55 12.2 360.0 12.2 423.15 -79.45 L423.15 0.0" fill-rule="evenodd" stroke="none"/>
    </g>
    <g id="font_Arial_t0">
      <path d="M268.85 -82.0 Q243.9 -78.4 228.65 -78.4 208.25 -78.4 197.55 -85.05 186.35 -91.65 181.8 -102.85 176.7 -114.05 176.7 -153.25 L176.7 -469.5 268.85 -469.5 268.85 -540.8 176.7 -540.8 176.7 -729.7 85.55 -674.7 85.55 -540.8 18.35 -540.8 18.35 -469.5 85.55 -469.5 85.55 -158.35 Q85.55 -75.85 96.75 -49.9 107.95 -24.45 135.45 -8.65 162.95 7.15 212.85 7.15 243.4 7.15 282.1 -1.0 L268.85 -82.0" fill-rule="evenodd" stroke="none"/>
    </g>
    <g id="font_Arial_e0">
      <path d="M138.0 -322.35 Q142.6 -393.1 185.85 -435.35 228.65 -477.65 291.8 -477.65 361.55 -477.65 405.35 -424.7 433.85 -390.55 439.95 -322.35 L138.0 -322.35 M438.95 -174.15 Q418.05 -116.1 382.4 -89.6 346.75 -63.15 296.35 -63.15 228.65 -63.15 183.3 -110.5 138.0 -157.85 132.9 -246.95 L536.2 -246.95 Q536.7 -263.25 536.7 -271.4 536.7 -405.35 467.95 -479.15 399.2 -553.0 290.75 -553.0 178.75 -553.0 108.45 -477.65 38.2 -402.25 38.2 -265.8 38.2 -133.9 107.95 -60.6 177.2 12.2 295.85 12.2 390.05 12.2 450.65 -33.6 511.25 -79.45 533.65 -162.45 L438.95 -174.15" fill-rule="evenodd" stroke="none"/>
    </g>
    <g id="font_Arial_r0">
      <path d="M67.7 0.0 L159.4 0.0 159.4 -283.1 Q159.4 -341.15 174.65 -390.05 184.85 -422.15 208.8 -439.95 232.7 -458.3 262.75 -458.3 296.35 -458.3 329.95 -438.45 L361.55 -523.45 Q313.65 -553.0 267.35 -553.0 235.25 -553.0 208.8 -534.65 181.8 -516.35 150.2 -458.8 L150.2 -540.8 67.7 -540.8 67.7 0.0" fill-rule="evenodd" stroke="none"/>
    </g>
    <g id="text1">
      <g transform="matrix(1.0, 0.0, 0.0, 1.0, 63.0, 0.0)">
        <use fill="#000000" height="10.45" transform="matrix(0.0077, 0.0, 0.0, 0.0077, 0.0, 7.0)" width="23.45" xlink:href="#font_Arial_50"/>
        <use fill="#000000" height="10.45" transform="matrix(0.0077, 0.0, 0.0, 0.0077, 4.45, 7.0)" width="23.45" xlink:href="#font_Arial_00"/>
        <use fill="#000000" height="10.45" transform="matrix(0.0077, 0.0, 0.0, 0.0077, 8.9, 7.0)" width="23.45" xlink:href="#font_Arial_00"/>
        <use fill="#000000" height="10.45" transform="matrix(0.0077, 0.0, 0.0, 0.0077, 13.35, 7.0)" width="23.45" xlink:href="#font_Arial_g0"/>
      </g>
    </g>
    <g id="font_Arial_50">
      <path d="M43.3 -195.55 Q52.45 -101.35 117.1 -44.3 181.3 12.75 283.1 12.75 407.35 12.75 479.15 -77.9 538.25 -151.75 538.25 -253.1 538.25 -359.5 471.0 -427.25 403.8 -494.95 306.05 -494.95 232.2 -494.95 165.0 -448.1 L205.2 -648.75 503.1 -648.75 503.1 -736.3 131.9 -736.3 59.6 -352.9 145.65 -341.7 Q166.0 -373.75 201.65 -393.6 237.3 -414.0 281.6 -414.0 352.9 -414.0 397.2 -368.65 440.95 -323.35 440.95 -244.95 440.95 -162.45 395.15 -112.55 349.3 -62.65 283.1 -62.65 228.15 -62.65 189.45 -97.75 150.2 -133.4 139.5 -203.7 L43.3 -195.55" fill-rule="evenodd" stroke="none"/>
    </g>
    <g id="font_Arial_00">
      <path d="M137.5 -368.15 Q137.5 -552.0 184.85 -620.2 222.5 -673.7 285.65 -673.7 349.85 -673.7 393.1 -613.1 435.9 -552.5 435.9 -368.15 435.9 -184.85 393.1 -123.75 349.85 -62.65 286.7 -62.65 223.55 -62.65 180.75 -123.25 137.5 -184.35 137.5 -368.15 M43.3 -368.15 Q43.3 -157.85 117.1 -64.65 178.75 12.75 286.7 12.75 368.65 12.75 422.65 -31.05 476.1 -75.35 503.1 -155.8 530.1 -236.8 530.1 -368.15 530.1 -479.15 513.3 -544.35 496.5 -610.05 466.95 -655.35 437.4 -701.2 392.1 -725.1 346.75 -749.55 286.7 -749.55 205.2 -749.55 151.75 -705.75 97.75 -661.95 70.8 -581.0 43.3 -500.55 43.3 -368.15" fill-rule="evenodd" stroke="none"/>
    </g>
    <g id="font_Arial_g0">
      <path d="M127.8 -280.05 Q127.8 -377.85 170.6 -427.25 213.35 -477.15 274.45 -477.15 336.6 -477.15 380.9 -426.7 424.7 -376.3 424.7 -277.0 424.7 -173.15 381.9 -124.25 339.15 -75.85 276.0 -75.85 212.35 -75.85 170.1 -124.75 127.8 -173.65 127.8 -280.05 M51.95 44.8 Q49.9 132.4 109.5 176.2 169.05 219.45 265.8 219.45 347.3 219.45 403.3 188.9 458.8 158.35 484.75 105.9 510.25 52.95 510.25 -73.35 L510.25 -540.8 425.7 -540.8 425.7 -475.6 Q363.6 -553.0 267.85 -553.0 196.05 -553.0 143.1 -517.35 89.6 -481.7 61.6 -416.0 33.6 -350.85 33.6 -273.45 33.6 -160.9 94.7 -80.45 155.8 0.0 267.35 0.0 356.95 0.0 417.05 -70.8 417.55 18.85 410.4 46.85 398.2 92.7 363.6 118.15 328.95 143.6 265.3 143.6 206.25 143.6 172.1 118.15 146.65 99.3 141.05 58.05 L51.95 44.8" fill-rule="evenodd" stroke="none"/>
    </g>
  </defs>
</svg>
