<?xml version="1.0" encoding="UTF-8" standalone="no"?>
<svg xmlns:ffdec="https://www.free-decompiler.com/flash" xmlns:xlink="http://www.w3.org/1999/xlink" ffdec:objectType="frame" height="79.45px" width="424.95px" xmlns="http://www.w3.org/2000/svg">
  <g transform="matrix(1.0, 0.0, 0.0, 1.0, 212.45, 77.95)">
    <use ffdec:characterId="478" height="79.45" transform="matrix(1.0, 0.0, 0.0, 1.0, 0.0, 0.0)" width="424.95" xlink:href="#shape0"/>
  </g>
  <defs>
    <g id="shape0">
      <path d="M211.0 -34.85 L210.0 -27.35 206.0 0.0 -114.1 -35.75 -120.75 -36.55 -157.4 -40.6 -174.4 -42.5 -181.55 -43.3 -193.4 -44.65 -210.45 -46.6 -210.95 -46.65 -207.9 -76.45 -193.4 -75.05 -181.55 -73.9 -174.4 -73.25 -157.4 -71.6 54.0 -51.6 211.0 -34.85" fill="#a5df8c" fill-rule="evenodd" stroke="none"/>
      <path d="M211.0 -34.85 L54.0 -51.6 -157.4 -71.6 -174.4 -73.25 -181.55 -73.9 -193.4 -75.05 -207.9 -76.45 -210.95 -46.65 -210.45 -46.6 -193.4 -44.65 -181.55 -43.3 -174.4 -42.5 -157.4 -40.6 -120.75 -36.55 -114.1 -35.75 206.0 0.0 210.0 -27.35 211.0 -34.85 Z" fill="none" stroke="#4b7a3f" stroke-linecap="round" stroke-linejoin="round" stroke-width="3.0"/>
    </g>
  </defs>
</svg>
