<?xml version="1.0" encoding="UTF-8" standalone="no"?>
<svg xmlns:ffdec="https://www.free-decompiler.com/flash" xmlns:xlink="http://www.w3.org/1999/xlink" ffdec:objectType="frame" height="43.3px" width="83.3px" xmlns="http://www.w3.org/2000/svg">
  <g transform="matrix(1.0, 0.0, 0.0, 1.0, 1.9, 1.9)">
    <use ffdec:characterId="35" height="43.3" transform="matrix(1.0, 0.0, 0.0, 1.0, 0.0, 0.0)" width="43.3" xlink:href="#sprite0"/>
    <use ffdec:characterId="35" height="43.3" transform="matrix(1.0, 0.0, 0.0, 1.0, 40.0, 0.0)" width="43.3" xlink:href="#sprite0"/>
    <use ffdec:characterId="89" height="36.15" transform="matrix(1.0, 0.0, 0.0, 1.0, 0.0, 0.0)" width="76.7" xlink:href="#shape1"/>
  </g>
  <defs>
    <g id="sprite0">
      <use ffdec:characterId="34" height="43.3" transform="matrix(1.0, 0.0, 0.0, 1.0, 0.0, 0.0)" width="43.3" xlink:href="#shape0"/>
    </g>
    <g id="shape0">
      <path d="M-0.4 -0.4 L39.9 -0.4 39.9 39.9 -0.4 39.9 -0.4 -0.4" fill="#f11212" fill-rule="evenodd" stroke="none"/>
      <path d="M-0.4 -0.4 L39.9 -0.4 39.9 39.9 -0.4 39.9 -0.4 -0.4 Z" fill="none" stroke="#790000" stroke-linecap="round" stroke-linejoin="round" stroke-width="3.0"/>
    </g>
    <g id="shape1">
      <path d="M78.05 37.8 L1.35 37.8 1.35 1.65 78.05 1.65 78.05 37.8" fill="#f11212" fill-opacity="1" fill-rule="evenodd" stroke="none"/>
    </g>
  </defs>
</svg>
