<?xml version="1.0" encoding="UTF-8" standalone="no"?>
<svg xmlns:ffdec="https://www.free-decompiler.com/flash" xmlns:xlink="http://www.w3.org/1999/xlink" ffdec:objectType="frame" height="88.15px" width="36.55px" xmlns="http://www.w3.org/2000/svg">
  <g transform="matrix(1.0, 0.0, 0.0, 1.0, 0.6, 2.65)">
    <use ffdec:characterId="270" height="88.15" transform="matrix(1.0, 0.0, 0.0, 1.0, 0.0, 0.0)" width="36.55" xlink:href="#shape0"/>
  </g>
  <defs>
    <g id="shape0">
      <path d="M32.35 2.6 L33.45 4.75 33.55 5.35 33.55 7.45 35.35 10.6 Q36.1 11.5 35.95 12.5 35.45 13.1 34.85 13.1 L34.1 13.2 34.3 14.6 Q33.4 14.6 31.85 15.35 33.15 16.15 34.15 16.3 34.1 19.0 32.85 19.6 28.75 19.5 26.5 18.4 L25.55 19.15 Q25.35 19.6 24.35 20.05 23.95 20.9 23.85 21.9 22.1 22.85 16.1 18.75 17.1 17.55 17.25 16.7 19.3 15.9 22.25 11.65 L22.25 11.6 Q21.75 9.05 22.25 7.85 23.25 6.9 25.0 7.3 29.1 3.1 32.35 2.6 M32.95 8.2 L32.9 8.0 31.45 8.7 32.85 9.35 32.9 9.15 32.95 8.2 M32.45 12.1 Q32.75 12.95 34.1 13.1 L34.1 13.2 34.1 13.1 Q32.75 12.95 32.45 12.1 M25.75 11.3 Q25.4 13.1 24.05 13.5 23.1 13.3 22.75 12.4 L22.25 11.6 22.75 12.4 Q23.1 13.3 24.05 13.5 25.4 13.1 25.75 11.3 M24.0 14.9 Q24.2 17.2 26.5 18.4 24.2 17.2 24.0 14.9 M24.85 8.35 Q22.95 7.75 23.0 9.95 23.55 13.1 24.8 11.15 23.85 10.45 24.7 9.4 23.85 10.45 24.8 11.15 23.55 13.1 23.0 9.95 22.95 7.75 24.85 8.35 M25.6 7.4 L25.0 7.3 25.6 7.4 M33.25 9.5 L32.85 9.35 33.25 9.5 M33.4 7.7 L32.9 8.0 33.4 7.7 M29.95 8.25 Q32.25 7.35 33.55 7.45 32.25 7.35 29.95 8.25" fill="#ebb6a9" fill-rule="evenodd" stroke="none"/>
      <path d="M17.25 16.7 Q9.85 7.15 16.7 0.65 L18.9 -1.1 Q23.4 -2.55 26.65 -1.95 29.8 -1.4 31.2 0.05 32.55 1.5 32.35 2.6 29.1 3.1 25.0 7.3 23.25 6.9 22.25 7.85 21.75 9.05 22.25 11.6 L22.25 11.65 Q19.3 15.9 17.25 16.7" fill="#3f1a0a" fill-rule="evenodd" stroke="none"/>
      <path d="M23.85 21.9 L23.8 23.0 Q25.95 29.45 26.7 34.0 27.65 40.4 25.75 43.15 25.5 50.4 23.4 56.7 L22.15 67.45 2.1 62.85 2.25 62.55 Q3.45 59.7 5.3 57.0 4.55 45.85 7.0 34.0 7.95 29.45 9.4 25.2 L11.05 23.0 Q12.55 21.25 14.35 20.0 L14.65 19.95 15.3 19.5 16.1 18.75 Q22.1 22.85 23.85 21.9" fill="#cdd0fe" fill-rule="evenodd" stroke="none"/>
      <path d="M32.95 8.2 L32.5 8.7 32.9 9.15 32.85 9.35 31.45 8.7 32.9 8.0 32.95 8.2" fill="#ffffff" fill-rule="evenodd" stroke="none"/>
      <path d="M32.9 9.15 L32.5 8.7 32.95 8.2 32.9 9.15" fill="#000033" fill-rule="evenodd" stroke="none"/>
      <path d="M34.3 14.6 L34.3 15.15 34.15 15.35 Q34.45 15.95 34.15 16.3 33.15 16.15 31.85 15.35 33.4 14.6 34.3 14.6 M34.15 15.35 L31.85 15.35 34.15 15.35" fill="#e19684" fill-rule="evenodd" stroke="none"/>
      <path d="M22.15 67.45 L21.05 67.25 Q18.95 73.4 16.8 77.1 16.05 86.0 9.9 84.9 1.6 82.9 0.0 76.0 -0.5 69.1 2.1 62.85 L22.15 67.45" fill="#0a357e" fill-rule="evenodd" stroke="none"/>
      <path d="M32.35 2.6 L33.45 4.75 33.55 5.35 33.55 7.45 35.35 10.6 Q36.1 11.5 35.95 12.5 35.45 13.1 34.85 13.1 L34.1 13.2 34.3 14.6 34.3 15.15 34.15 15.35 Q34.45 15.95 34.15 16.3 34.1 19.0 32.85 19.6 28.75 19.5 26.5 18.4 L25.55 19.15 Q25.35 19.6 24.35 20.05 23.95 20.9 23.85 21.9 M16.1 18.75 Q17.1 17.55 17.25 16.7 M22.25 11.65 L22.25 11.6 Q21.75 9.05 22.25 7.85 23.25 6.9 25.0 7.3 L25.6 7.4 M32.95 8.2 L32.9 8.0 31.45 8.7 32.85 9.35 32.9 9.15 32.95 8.2 M32.9 8.0 L33.4 7.7 M32.85 9.35 L33.25 9.5 M24.7 9.4 Q23.85 10.45 24.8 11.15 23.55 13.1 23.0 9.95 22.95 7.75 24.85 8.35 M26.5 18.4 Q24.2 17.2 24.0 14.9 M22.25 11.6 L22.75 12.4 Q23.1 13.3 24.05 13.5 25.4 13.1 25.75 11.3 M34.1 13.2 L34.1 13.1 Q32.75 12.95 32.45 12.1 M34.3 14.6 Q33.4 14.6 31.85 15.35 L34.15 15.35 M31.85 15.35 Q33.15 16.15 34.15 16.3 M33.55 7.45 Q32.25 7.35 29.95 8.25" ffdec:has-small-stroke="true" ffdec:original-stroke-width="0.05" fill="none" stroke="#b6643d" stroke-linecap="round" stroke-linejoin="round" stroke-width="1.0"/>
      <path d="M17.25 16.7 Q19.3 15.9 22.25 11.65 M25.0 7.3 Q29.1 3.1 32.35 2.6" ffdec:has-small-stroke="true" ffdec:original-stroke-width="0.05" fill="none" stroke="#402315" stroke-linecap="round" stroke-linejoin="round" stroke-width="1.0"/>
      <path d="M32.9 9.15 L32.5 8.7 32.95 8.2" ffdec:has-small-stroke="true" ffdec:original-stroke-width="0.05" fill="none" stroke="#000033" stroke-linecap="round" stroke-linejoin="round" stroke-width="1.0"/>
      <path d="M23.85 21.9 L23.8 23.0 Q25.95 29.45 26.7 34.0 27.65 40.4 25.75 43.15 25.5 50.4 23.4 56.7 L22.15 67.45 21.05 67.25 Q18.95 73.4 16.8 77.1 16.05 86.0 9.9 84.9 1.6 82.9 0.0 76.0 -0.5 69.1 2.1 62.85 L2.25 62.55 Q3.45 59.7 5.3 57.0 4.55 45.85 7.0 34.0 7.95 29.45 9.4 25.2 L11.05 23.0 Q12.55 21.25 14.35 20.0 L14.65 19.95 15.3 19.5 16.1 18.75 Q22.1 22.85 23.85 21.9 M22.15 67.45 L2.1 62.85" fill="none" stroke="#171a68" stroke-linecap="round" stroke-linejoin="round" stroke-width="1.0"/>
      <path d="M17.25 16.7 Q9.85 7.15 16.7 0.65 L18.9 -1.1 Q23.4 -2.55 26.65 -1.95 29.8 -1.4 31.2 0.05 32.55 1.5 32.35 2.6" fill="none" stroke="#402315" stroke-linecap="round" stroke-linejoin="round" stroke-width="1.0"/>
    </g>
  </defs>
</svg>
